<svg width="45" height="44" viewBox="0 0 45 44" fill="none" xmlns="http://www.w3.org/2000/svg">
<rect x="0.666626" width="44" height="44" rx="22" fill="white" fill-opacity="0.11"/>
<rect x="1.16663" y="0.5" width="43" height="43" rx="21.5" stroke="white" stroke-opacity="0.1"/>
<path d="M29.0001 14C29.5306 14 30.0393 14.2107 30.4143 14.5858C30.7894 14.9609 31.0001 15.4696 31.0001 16V20C31.0001 20.2652 30.8948 20.5196 30.7072 20.7071C30.5197 20.8946 30.2653 21 30.0001 21C29.7349 21 29.4806 20.8946 29.293 20.7071C29.1055 20.5196 29.0001 20.2652 29.0001 20V16H17.0001V28H21.0001C21.2653 28 21.5197 28.1054 21.7072 28.2929C21.8948 28.4804 22.0001 28.7348 22.0001 29C22.0001 29.2652 21.8948 29.5196 21.7072 29.7071C21.5197 29.8946 21.2653 30 21.0001 30H17.0001C16.4697 30 15.961 29.7893 15.5859 29.4142C15.2108 29.0391 15.0001 28.5304 15.0001 28V16C15.0001 15.4696 15.2108 14.9609 15.5859 14.5858C15.961 14.2107 16.4697 14 17.0001 14H29.0001ZM27.0431 24.629L30.7071 28.293C30.8893 28.4816 30.9901 28.7342 30.9878 28.9964C30.9855 29.2586 30.8803 29.5094 30.6949 29.6948C30.5095 29.8802 30.2587 29.9854 29.9965 29.9877C29.7343 29.99 29.4817 29.8892 29.2931 29.707L25.6291 26.043L24.9851 28.621C24.9585 28.7277 24.8975 28.8227 24.8114 28.8912C24.7254 28.9598 24.6191 28.998 24.5091 29H24.5001C24.3917 28.9999 24.2862 28.9645 24.1996 28.8992C24.1131 28.8339 24.0501 28.7422 24.0201 28.638L22.0201 21.638C21.9957 21.5523 21.9946 21.4616 22.0169 21.3753C22.0393 21.289 22.0843 21.2103 22.1474 21.1473C22.2104 21.0842 22.2891 21.0392 22.3754 21.0168C22.4617 20.9944 22.5524 20.9955 22.6381 21.02L29.6381 23.02C29.7436 23.0506 29.836 23.1151 29.9012 23.2034C29.9664 23.2918 30.0006 23.3992 29.9987 23.509C29.9968 23.6188 29.9588 23.7249 29.8905 23.8109C29.8223 23.897 29.7276 23.9581 29.6211 23.985L27.0431 24.629Z" fill="white"/>
</svg>
