<svg width="1440" height="333" viewBox="0 0 1440 333" fill="none" xmlns="http://www.w3.org/2000/svg">
<path d="M1416.14 3.53966L1404.95 1.12085M1416.14 3.53966H1382.99M1416.14 3.53966L1427.69 6.03835M1416.14 3.53966H1439.61M1404.95 1.12085L1409.02 1.12179L1413.05 1.12703L1416.99 1.14176L1420.81 1.17076L1424.47 1.21782L1427.92 1.28866L1431.12 1.38707L1434.1 1.51256L1436.65 1.68609L1438.97 1.88719L1439.61 1.95762V3.53966M1404.95 1.12085H1372.33M1372.33 1.12085H1339.72M1372.33 1.12085L1382.99 3.53966M1339.72 1.12085H1307.1M1339.72 1.12085L1349.84 3.53966M1307.1 1.12085H1274.48M1307.1 1.12085L1316.69 3.53966M1274.48 1.12085H1241.87M1274.48 1.12085L1283.54 3.53966M1241.87 1.12085H1209.25M1241.87 1.12085L1250.39 3.53966M1209.25 1.12085H1176.63M1209.25 1.12085L1217.24 3.53966M1176.63 1.12085H1144.02M1176.63 1.12085L1184.09 3.53966M1144.02 1.12085H1111.4M1144.02 1.12085L1150.94 3.53966M1111.4 1.12085H1078.78M1111.4 1.12085L1117.79 3.53966M1078.78 1.12085H1046.17M1078.78 1.12085L1084.64 3.53966M1046.17 1.12085H1013.55M1046.17 1.12085L1051.49 3.53966M1013.55 1.12085H980.933M1013.55 1.12085L1014.73 1.71842L1016.53 2.6231L1018.34 3.53966M980.933 1.12085H948.317M980.933 1.12085L981.985 1.71842L985.194 3.53966M948.317 1.12085H915.7M948.317 1.12085L952.045 3.53966M915.7 1.12085H883.083M915.7 1.12085L916.886 2.01886L918.088 2.92735L918.491 3.23303L918.896 3.53966M883.083 1.12085H850.467M883.083 1.12085L884.072 2.01886L884.404 2.32027L884.738 2.6231L885.747 3.53966M850.467 1.12085H817.85M850.467 1.12085L852.598 3.53966M817.85 1.12085L818.047 1.41892L818.244 1.71842L819.245 3.23303L819.448 3.53966M817.85 1.12085H785.234M785.234 1.12085H752.616M785.234 1.12085L786.299 3.53966M752.616 1.12085H720M752.616 1.12085L752.814 2.01886L753.149 3.53966M720 1.12085H687.384M720 1.12085V3.53966M687.384 1.12085H654.766M687.384 1.12085L687.186 2.01886L686.851 3.53966M654.766 1.12085H622.15M654.766 1.12085L653.701 3.53966M622.15 1.12085L621.953 1.41892L621.756 1.71842L620.755 3.23303L620.552 3.53966M622.15 1.12085H589.534M589.534 1.12085H556.916M589.534 1.12085L587.673 3.23303L587.402 3.53966M556.916 1.12085H524.3M556.916 1.12085L555.928 2.01886L555.596 2.32027L554.927 2.92735L554.591 3.23303L554.253 3.53966M524.3 1.12085H491.683M524.3 1.12085L523.114 2.01886L521.913 2.92735L521.509 3.23303L521.104 3.53966M491.683 1.12085H459.067M491.683 1.12085L487.955 3.53966M459.067 1.12085H426.45M459.067 1.12085L458.015 1.71842L454.806 3.53966M426.45 1.12085H393.833M426.45 1.12085L421.656 3.53966M393.833 1.12085H361.217M393.833 1.12085L388.507 3.53966M361.217 1.12085H328.6M361.217 1.12085L355.357 3.53966M328.6 1.12085H295.983M328.6 1.12085L322.208 3.53966M295.983 1.12085H263.367M295.983 1.12085L289.059 3.53966M263.367 1.12085H230.751M263.367 1.12085L255.909 3.53966M230.751 1.12085H198.133M230.751 1.12085L222.76 3.53966M198.133 1.12085H165.517M198.133 1.12085L189.61 3.53966M165.517 1.12085H132.9M165.517 1.12085L156.461 3.53966M132.9 1.12085H100.283M132.9 1.12085L123.312 3.53966M100.283 1.12085H67.6668M100.283 1.12085L90.163 3.53966M67.6668 1.12085H35.0504M67.6668 1.12085L57.0136 3.53966M35.0504 1.12085L30.9801 1.12179L26.9517 1.12703L23.0074 1.14176L19.1867 1.17076L15.5316 1.21782L12.0812 1.28866L8.87672 1.38707L5.90232 1.51256L3.34995 1.68609L1.0262 1.88719L0.387546 1.95764V3.53966M35.0504 1.12085L23.8641 3.53966M90.163 3.53966H123.312M90.163 3.53966H57.0136M90.163 3.53966L79.7053 6.03835M123.312 3.53966L113.405 6.03835M123.312 3.53966H156.461M222.76 3.53966H255.909M222.76 3.53966H189.61M222.76 3.53966L220.722 4.15673L214.504 6.03835M255.909 3.53966L248.204 6.03835M255.909 3.53966H289.059M355.357 3.53966H388.507M355.357 3.53966H322.208M355.357 3.53966L353.863 4.15673L353.11 4.46669L349.303 6.03835M388.507 3.53966L387.828 3.84724L387.148 4.15673L383.003 6.03835M388.507 3.53966H421.656M487.955 3.53966L487.48 3.84724L484.102 6.03835M487.955 3.53966H521.104M487.955 3.53966H454.806M521.104 3.53966L520.289 4.15673L519.878 4.46669L519.467 4.77855L517.802 6.03835M521.104 3.53966H554.253M620.552 3.53966H653.701M620.552 3.53966H587.402M620.552 3.53966L618.901 6.03835M653.701 3.53966L653.566 3.84724L653.43 4.15673L653.293 4.46669L652.879 5.4056L652.601 6.03835M653.701 3.53966H686.851M753.149 3.53966H786.299M753.149 3.53966H720M753.149 3.53966L753.7 6.03835M786.299 3.53966L786.434 3.84724L786.57 4.15673L786.707 4.46669L787.399 6.03835M786.299 3.53966H819.448M885.747 3.53966H918.896M885.747 3.53966H852.598M885.747 3.53966L886.426 4.15673L887.802 5.4056L888.149 5.72126L888.499 6.03835M918.896 3.53966L919.711 4.15673L920.122 4.46669L920.534 4.77855L922.198 6.03835M918.896 3.53966H952.045M1018.34 3.53966H1051.49M1018.34 3.53966H985.194M1018.34 3.53966L1019.57 4.15673L1020.18 4.46669L1023.3 6.03835M1051.49 3.53966L1052.17 3.84724L1052.85 4.15673L1057 6.03835M1051.49 3.53966H1084.64M1150.94 3.53966H1184.09M1150.94 3.53966H1117.79M1150.94 3.53966L1152.71 4.15673L1153.6 4.46669L1158.1 6.03835M1184.09 3.53966L1191.8 6.03835M1184.09 3.53966H1217.24M1283.54 3.53966H1316.69M1283.54 3.53966H1250.39M1283.54 3.53966L1292.89 6.03835M1316.69 3.53966L1326.6 6.03835M1316.69 3.53966H1349.84M0.271359 26.159H0.387546M33.6366 26.159L46.2928 22.9667M33.6366 26.159L20.4955 29.4735M33.6366 26.159H71.7679M33.6366 26.159H0.387546M46.2928 22.9667H8.86473M46.2928 22.9667L58.491 19.89M46.2928 22.9667H83.7209M8.86473 22.9667L21.7405 19.89M8.86473 22.9667H0.387546M8.86473 22.9667L0.387546 24.992M46.1414 14.0588H81.6078M46.1414 14.0588L57.7137 11.2934M46.1414 14.0588H10.6758M46.1414 14.0588L34.1576 16.9225M81.6078 14.0588L92.5714 11.2934M81.6078 14.0588L70.2552 16.9225M81.6078 14.0588H117.074M57.7137 11.2934H92.5714M57.7137 11.2934L68.8954 8.62165M57.7137 11.2934H22.8567M92.5714 11.2934H127.428M92.5714 11.2934L103.164 8.62165M0.0224927 76.5463H0.387546M30.7904 76.5463L47.1106 71.2537M30.7904 76.5463L13.6591 82.1022M30.7904 76.5463H80.0202M30.7904 76.5463H0.387546M47.1106 71.2537L62.676 66.2059M47.1106 71.2537H95.174M47.1106 71.2537H0.387546M15.7243 66.2059H62.676M15.7243 66.2059L31.6472 61.3864M15.7243 66.2059H0.387546M15.7243 66.2059L0.387546 70.848M46.8655 56.7798H91.7409M46.8655 56.7798L61.4257 52.3729M46.8655 56.7798H1.99018M46.8655 56.7798L31.6472 61.3864M91.7409 56.7798L105.331 52.3729M91.7409 56.7798L77.5368 61.3864M91.7409 56.7798H136.617M61.4257 52.3729H105.331M61.4257 52.3729H17.5211M61.4257 52.3729L75.3697 48.1523M105.331 52.3729L118.345 48.1523M105.331 52.3729H149.236M101.558 40.2255H142.787M101.558 40.2255L113.87 36.4989M101.558 40.2255H60.3283M101.558 40.2255L88.735 44.1067M142.787 40.2255L154.278 36.4989M142.787 40.2255L130.82 44.1067M142.787 40.2255H184.017M113.87 36.4989H154.278M113.87 36.4989H73.4612M113.87 36.4989L125.701 32.9177M154.278 36.4989L165.321 32.9177M154.278 36.4989H194.687M148.03 26.159H186.162M148.03 26.159L158.577 22.9667M148.03 26.159H109.899M148.03 26.159L137.079 29.4735M186.162 26.159L196.005 22.9667M186.162 26.159L175.941 29.4735M186.162 26.159H224.293M158.577 22.9667H196.005M158.577 22.9667H121.149M158.577 22.9667L168.742 19.89M196.005 22.9667L205.493 19.89M196.005 22.9667H233.433M188.006 14.0588H223.473M188.006 14.0588L197.142 11.2934M188.006 14.0588H152.541M188.006 14.0588L178.546 16.9225M223.473 14.0588L231.999 11.2934M223.473 14.0588L214.642 16.9225M223.473 14.0588H258.939M197.142 11.2934H231.999M197.142 11.2934L205.97 8.62165M197.142 11.2934H162.285M231.999 11.2934H266.857M231.999 11.2934L240.239 8.62165M25.6092 168.304L48.5784 157.876M25.6092 168.304L1.01196 179.472M25.6092 168.304H95.0481M25.6092 168.304H0.387546M48.5784 157.876L70.0775 148.115M48.5784 157.876H115.72M48.5784 157.876H0.387546M48.1121 130.355H109.193M48.1121 130.355L67.7403 122.254M48.1121 130.355L27.2658 138.96M48.1121 130.355H0.387546M109.193 130.355L127.036 122.254M109.193 130.355L90.2417 138.96M109.193 130.355H170.274M67.7403 122.254H127.036M67.7403 122.254H8.44421M67.7403 122.254L86.2546 114.612M127.036 122.254L143.868 114.612M127.036 122.254H186.333M120.298 100.56H174.817M120.298 100.56L135.985 94.0856M120.298 100.56H65.7801M120.298 100.56L103.746 107.392M174.817 100.56L189.077 94.0856M174.817 100.56L159.769 107.392M174.817 100.56H229.335M135.985 94.0856H189.077M135.985 94.0856H82.8926M135.985 94.0856L150.871 87.9411M189.077 94.0856L202.611 87.9411M189.077 94.0856H242.169M178.478 76.5463H227.708M178.478 76.5463L191.301 71.2537M178.478 76.5463H129.249M178.478 76.5463L165.018 82.1022M227.708 76.5463L239.365 71.2537M227.708 76.5463L215.471 82.1022M227.708 76.5463H276.937M191.301 71.2537H239.365M191.301 71.2537H143.238M191.301 71.2537L203.531 66.2059M239.365 71.2537L250.483 66.2059M239.365 71.2537H287.428M226.368 56.7798H271.244M226.368 56.7798L237.046 52.3729M226.368 56.7798H181.492M226.368 56.7798L215.208 61.3864M271.244 56.7798L280.951 52.3729M271.244 56.7798L261.098 61.3864M271.244 56.7798H316.119M237.046 52.3729H280.951M237.046 52.3729H193.141M237.046 52.3729L247.271 48.1523M280.951 52.3729L290.247 48.1523M280.951 52.3729H324.856M266.476 40.2255H307.705M266.476 40.2255L275.504 36.4989M266.476 40.2255H225.246M266.476 40.2255L257.073 44.1067M307.705 40.2255L308.75 39.7516L315.913 36.4989M307.705 40.2255L299.157 44.1067M307.705 40.2255H348.935M275.504 36.4989H315.913M275.504 36.4989H235.096M275.504 36.4989L284.181 32.9177M315.913 36.4989L323.801 32.9177M315.913 36.4989H356.322M300.555 26.159H338.687M300.555 26.159L308.29 22.9667M300.555 26.159H262.424M300.555 26.159L292.525 29.4735M338.687 26.159L345.718 22.9667M338.687 26.159L335.982 27.3874L331.386 29.4735M338.687 26.159H376.818M308.29 22.9667H345.718M308.29 22.9667H270.862M308.29 22.9667L315.744 19.89M345.718 22.9667L352.495 19.89M345.718 22.9667H383.146M329.871 14.0588H365.338M329.871 14.0588L336.571 11.2934M329.871 14.0588H294.405M329.871 14.0588L322.934 16.9225M365.338 14.0588L369.926 11.976L370.678 11.6338L371.429 11.2934M365.338 14.0588L359.03 16.9225M365.338 14.0588H400.804M336.571 11.2934H371.429M336.571 11.2934L343.045 8.62165M336.571 11.2934H301.714M371.429 11.2934H406.286M371.429 11.2934L377.313 8.62165M50.7679 287.102H146.373M50.7679 287.102L80.8717 267.577M50.7679 287.102L17.6882 308.558M50.7679 287.102L0.387546 287.103M146.373 287.102L172.176 267.577M146.373 287.102L118.019 308.558M146.373 287.102H241.977M80.8717 267.577H172.176M80.8717 267.577L108.384 249.732M80.8717 267.577H0.387546M172.176 267.577L195.758 249.732M172.176 267.577H263.48M156.866 218.287H237.314M156.866 218.287L178.334 204.362M156.866 218.287H76.4183M156.866 218.287L133.625 233.361M237.314 218.287L255.715 204.362M237.314 218.287L217.393 233.361M237.314 218.287H317.761M178.334 204.362H255.715M178.334 204.362H100.953M178.334 204.362L198.226 191.46M255.715 204.362L272.765 191.46M255.715 204.362H333.096M233.927 168.304H303.365M233.927 168.304L250.005 157.876M233.927 168.304H164.487M233.927 168.304L216.708 179.472M303.365 168.304L317.147 157.876M303.365 168.304L288.607 179.472M303.365 168.304H372.804M250.005 157.876H317.147M250.005 157.876H182.863M250.005 157.876L265.054 148.115M317.147 157.876L330.047 148.115M317.147 157.876H384.29M292.435 130.355H353.516M292.435 130.355L304.926 122.254M292.435 130.355H231.355M292.435 130.355L279.169 138.96M353.516 130.355L364.222 122.254M353.516 130.355L342.145 138.96M353.516 130.355H414.597M304.926 122.254H364.222M304.926 122.254H245.629M304.926 122.254L316.707 114.612M364.222 122.254L374.321 114.612M364.222 122.254H423.518M338.372 100.56H392.89M338.372 100.56L348.354 94.0856M338.372 100.56H283.853M338.372 100.56L327.838 107.392M392.89 100.56L401.446 94.0856M392.89 100.56L383.862 107.392M392.89 100.56H447.409M348.354 94.0856H401.446M348.354 94.0856H295.262M348.354 94.0856L357.827 87.9411M401.446 94.0856L409.566 87.9411M401.446 94.0856H454.539M375.396 76.5463H424.625M375.396 76.5463L383.556 71.2537M375.396 76.5463H326.166M375.396 76.5463L366.83 82.1022M424.625 76.5463L431.619 71.2537M424.625 76.5463L417.282 82.1022M424.625 76.5463H473.854M383.556 71.2537H431.619M383.556 71.2537H335.492M383.556 71.2537L391.338 66.2059M431.619 71.2537L438.29 66.2059M431.619 71.2537H479.682M405.87 56.7798H450.747M405.87 56.7798L412.666 52.3729M405.87 56.7798H360.995M405.87 56.7798L398.769 61.3864M450.747 56.7798L456.57 52.3729M450.747 56.7798L444.659 61.3864M450.747 56.7798H495.622M412.666 52.3729H456.57M412.666 52.3729H368.76M412.666 52.3729L419.173 48.1523M456.57 52.3729L462.148 48.1523M456.57 52.3729H500.476M431.393 40.2255H472.624M431.393 40.2255L437.139 36.4989M431.393 40.2255H390.164M431.393 40.2255L425.409 44.1067M472.624 40.2255L471.993 40.7019L467.494 44.1067M472.624 40.2255L477.548 36.4989M472.624 40.2255H513.853M437.139 36.4989H477.548M437.139 36.4989H396.731M437.139 36.4989L442.661 32.9177M477.548 36.4989L482.281 32.9177M477.548 36.4989H517.957M453.081 26.159H491.212M453.081 26.159L458.003 22.9667M453.081 26.159H414.95M453.081 26.159L447.971 29.4735M491.212 26.159L495.431 22.9667M491.212 26.159L489.589 27.3874L488.494 28.2161L486.832 29.4735M491.212 26.159H529.343M458.003 22.9667H495.431M458.003 22.9667H420.575M458.003 22.9667L462.746 19.89M495.431 22.9667L496.973 21.7996L497.99 21.0304L499.497 19.89M495.431 22.9667H532.859M471.737 14.0588H507.202M471.737 14.0588L474.948 11.976L476 11.2934M471.737 14.0588H436.27M471.737 14.0588L467.882 16.5589L467.322 16.9225M507.202 14.0588L509.956 11.976L510.407 11.6338L510.857 11.2934M507.202 14.0588L505.327 15.4778L503.418 16.9225M507.202 14.0588H542.669M476 11.2934H510.857M476 11.2934L480.119 8.62165M476 11.2934H441.143M510.857 11.2934H545.714M510.857 11.2934L514.388 8.62165M433.186 287.102H528.791M433.186 287.102L446.088 267.577M433.186 287.102H337.582M433.186 287.102L419.009 308.558M528.791 287.102L537.392 267.577M528.791 287.102L519.34 308.558M528.791 287.102H624.396M446.088 267.577H537.392M446.088 267.577H354.784M446.088 267.577L457.879 249.732M537.392 267.577L545.253 249.732M537.392 267.577H628.696M478.657 218.287H559.104M478.657 218.287L487.858 204.362M478.657 218.287H398.209M478.657 218.287L468.696 233.361M559.104 218.287L565.238 204.362M559.104 218.287L552.465 233.361M559.104 218.287H639.553M487.858 204.362H565.238M487.858 204.362H410.477M487.858 204.362L496.383 191.46M565.238 204.362L570.922 191.46M565.238 204.362H642.619M511.683 168.304H581.122M511.683 168.304L518.574 157.876M511.683 168.304H442.244M511.683 168.304L504.304 179.472M581.122 168.304L585.716 157.876M581.122 168.304L576.203 179.472M581.122 168.304H650.561M518.574 157.876H585.716M518.574 157.876H451.432M518.574 157.876L525.023 148.115M585.716 157.876L590.016 148.115M585.716 157.876H652.858M536.758 130.355H597.838M536.758 130.355L542.111 122.254M536.758 130.355H475.677M536.758 130.355L531.073 138.96M597.838 130.355L601.407 122.254M597.838 130.355L594.048 138.96M597.838 130.355H658.919M542.111 122.254H601.407M542.111 122.254H482.815M542.111 122.254L547.16 114.612M601.407 122.254L604.774 114.612M601.407 122.254H660.704M556.445 100.56H610.964M556.445 100.56L560.723 94.0856M556.445 100.56H501.927M556.445 100.56L551.931 107.392M610.964 100.56L613.815 94.0856M610.964 100.56L607.954 107.392M610.964 100.56H665.482M560.723 94.0856H613.815M560.723 94.0856H507.631M560.723 94.0856L564.783 87.9411M613.815 94.0856L616.522 87.9411M613.815 94.0856H666.908M572.312 76.5463H621.541M572.312 76.5463L575.809 71.2537M572.312 76.5463H523.083M572.312 76.5463L568.642 82.1022M621.541 76.5463L623.873 71.2537M621.541 76.5463L619.094 82.1022M621.541 76.5463H670.771M575.809 71.2537H623.873M575.809 71.2537H527.746M575.809 71.2537L577.079 69.3331L579.145 66.2059M623.873 71.2537L626.097 66.2059M623.873 71.2537H671.937M585.373 56.7798H630.249M585.373 56.7798L588.285 52.3729M585.373 56.7798H540.497M585.373 56.7798L583.104 60.2155L582.329 61.3864M630.249 56.7798L630.987 55.1045L632.19 52.3729M630.249 56.7798L628.219 61.3864M630.249 56.7798H675.125M588.285 52.3729L588.64 51.8352L591.074 48.1523M588.285 52.3729H632.19M588.285 52.3729H544.38M632.19 52.3729L632.897 50.7689L633.129 50.2398L633.362 49.714L634.049 48.1523M632.19 52.3729H676.095M596.311 40.2255H637.541M596.311 40.2255L597.555 38.3434L597.862 37.879L598.167 37.4164L598.472 36.9567L598.774 36.4989M596.311 40.2255H555.082M596.311 40.2255L593.747 44.1067M637.541 40.2255L638.778 37.4164L638.981 36.9567L639.182 36.4989M637.541 40.2255L635.832 44.1067M637.541 40.2255H678.771M598.774 36.4989H639.182M598.774 36.4989H558.365M598.774 36.4989L600.264 34.2441L600.557 33.7996L601.14 32.9177M639.182 36.4989L640.176 34.2441L640.372 33.7996L640.566 33.3575L640.76 32.9177M639.182 36.4989H679.592M605.606 26.159H643.738M605.606 26.159L607.716 22.9667M605.606 26.159H567.474M605.606 26.159L605.066 26.9758L604.247 28.2161L603.416 29.4735M643.738 26.159L643.558 26.5664L642.463 29.0523L642.277 29.4735M643.738 26.159L645.144 22.9667M643.738 26.159H681.869M607.716 22.9667H645.144M607.716 22.9667H570.288M607.716 22.9667L609.749 19.89M645.144 22.9667L645.658 21.7996L645.827 21.4141L645.997 21.0304L646.499 19.89M645.144 22.9667H682.572M613.602 14.0588H649.067M613.602 14.0588L614.978 11.976L615.428 11.2934M613.602 14.0588H578.135M613.602 14.0588L612.899 15.1208L612.664 15.4778L612.426 15.8367L611.709 16.9225M649.067 14.0588L649.222 13.7079L649.529 13.0105L649.834 12.3193L650.285 11.2934M649.067 14.0588L648.442 15.4778L648.285 15.8367L647.966 16.5589L647.806 16.9225M649.067 14.0588H684.534M615.428 11.2934H650.285M615.428 11.2934L616.976 8.95063L617.194 8.62165M615.428 11.2934H580.571M650.285 11.2934L650.435 10.9544L650.584 10.6169L650.732 10.2808L650.879 9.94611L651.318 8.95063L651.463 8.62165M650.285 11.2934H685.143M815.604 287.102H911.209M815.604 287.102L811.304 267.577M815.604 287.102H720M815.604 287.102L820.33 308.558M911.209 287.102L902.608 267.577M911.209 287.102L920.66 308.558M911.209 287.102H1006.81M811.304 267.577H902.608M811.304 267.577H720M811.304 267.577L807.374 249.732M902.608 267.577L894.747 249.732M902.608 267.577H993.912M800.447 218.287H880.896M800.447 218.287L797.381 204.362M800.447 218.287H720M800.447 218.287L803.768 233.361M880.896 218.287L874.762 204.362M880.896 218.287L887.536 233.361M880.896 218.287H961.343M797.381 204.362H874.762M797.381 204.362H720M797.381 204.362L794.539 191.46M874.762 204.362L869.078 191.46M874.762 204.362H952.142M789.439 168.304H858.878M789.439 168.304L787.142 157.876M789.439 168.304H720M789.439 168.304L791.899 179.472M858.878 168.304L854.284 157.876M858.878 168.304L863.797 179.472M858.878 168.304H928.317M787.142 157.876H854.284M787.142 157.876H720M787.142 157.876L784.992 148.115M854.284 157.876L849.985 148.115M854.284 157.876H921.426M781.081 130.355H842.162M781.081 130.355L779.296 122.254M781.081 130.355H720M781.081 130.355L782.976 138.96M842.162 130.355L838.593 122.254M842.162 130.355L845.952 138.96M842.162 130.355H903.242M779.296 122.254H838.593M779.296 122.254H720M779.296 122.254L777.613 114.612M838.593 122.254L835.226 114.612M838.593 122.254H897.889M774.518 100.56H829.036M774.518 100.56L773.092 94.0856M774.518 100.56H720M774.518 100.56L776.023 107.392M829.036 100.56L826.185 94.0856M829.036 100.56L832.046 107.392M829.036 100.56H883.555M773.092 94.0856H826.185M773.092 94.0856H720M773.092 94.0856L771.739 87.9411M826.185 94.0856L823.478 87.9411M826.185 94.0856H879.277M769.229 76.5463H818.459M769.229 76.5463L768.063 71.2537M769.229 76.5463H720M769.229 76.5463L770.453 82.1022M818.459 76.5463L816.127 71.2537M818.459 76.5463L820.906 82.1022M818.459 76.5463H867.688M768.063 71.2537H816.127M768.063 71.2537H720M768.063 71.2537L766.952 66.2059M816.127 71.2537L813.903 66.2059M816.127 71.2537H864.191M764.875 56.7798H809.751M764.875 56.7798L763.905 52.3729M764.875 56.7798H720M764.875 56.7798L765.89 61.3864M809.751 56.7798L808.048 52.9134L807.81 52.3729M809.751 56.7798L811.781 61.3864M809.751 56.7798H854.627M763.905 52.3729L763.787 51.8352L762.975 48.1523M763.905 52.3729H807.81M763.905 52.3729H720M807.81 52.3729L807.103 50.7689L806.871 50.2398L806.638 49.714L805.951 48.1523M807.81 52.3729H851.715M761.229 40.2255H802.459M761.229 40.2255L760.409 36.4989M761.229 40.2255H720M761.229 40.2255L761.546 41.6622L761.653 42.1461L761.759 42.6325L761.975 43.6127L762.085 44.1067M802.459 40.2255L801.222 37.4164L800.817 36.4989M802.459 40.2255L804.168 44.1067M802.459 40.2255H843.689M760.409 36.4989H800.817M760.409 36.4989H720M760.409 36.4989L759.62 32.9177M800.817 36.4989L799.825 34.2441L799.628 33.7996L799.434 33.3575L799.24 32.9177M800.817 36.4989H841.226M758.131 26.159H796.262M758.131 26.159L757.428 22.9667M758.131 26.159H720M758.131 26.159L758.861 29.4735M796.262 26.159L796.442 26.5664L797.537 29.0523L797.723 29.4735M796.262 26.159L794.856 22.9667M796.262 26.159H834.394M757.428 22.9667H794.856M757.428 22.9667H720M757.428 22.9667L756.751 19.89M794.856 22.9667L794.342 21.7996L794.173 21.4141L794.003 21.0304L793.501 19.89M794.856 22.9667H832.284M755.467 14.0588H790.933M755.467 14.0588L754.857 11.2934M755.467 14.0588H720M755.467 14.0588L756.097 16.9225M790.933 14.0588L790.778 13.7079L790.47 13.0105L790.318 12.6639L790.015 11.976L789.865 11.6338L789.714 11.2934M790.933 14.0588L791.558 15.4778L791.715 15.8367L792.034 16.5589L792.194 16.9225M790.933 14.0588H826.399M754.857 11.2934L754.783 10.9544L754.708 10.6169L754.634 10.2808L754.269 8.62165M754.857 11.2934H789.714M754.857 11.2934H720M789.714 11.2934H824.572M789.714 11.2934L789.416 10.6169L789.268 10.2808L789.121 9.94611L788.683 8.95063L788.537 8.62165M1198.02 287.102H1293.63M1198.02 287.102L1176.52 267.577M1198.02 287.102H1102.42M1198.02 287.102L1221.65 308.558M1293.63 287.102L1267.82 267.577M1293.63 287.102L1321.98 308.558M1293.63 287.102H1389.23M1176.52 267.577H1267.82M1176.52 267.577H1085.22M1176.52 267.577L1156.87 249.732M1267.82 267.577L1244.24 249.732M1267.82 267.577H1359.13M1122.24 218.287H1202.69M1122.24 218.287L1106.9 204.362M1122.24 218.287H1041.79M1122.24 218.287L1138.84 233.361M1202.69 218.287L1184.29 204.362M1202.69 218.287L1222.61 233.361M1202.69 218.287H1283.13M1106.9 204.362H1184.29M1106.9 204.362H1029.52M1106.9 204.362L1092.7 191.46M1184.29 204.362L1167.23 191.46M1184.29 204.362H1261.67M1067.2 168.304H1136.63M1067.2 168.304L1055.71 157.876M1067.2 168.304H997.756M1067.2 168.304L1079.49 179.472M1136.63 168.304L1122.85 157.876M1136.63 168.304L1151.39 179.472M1136.63 168.304H1206.07M1055.71 157.876H1122.85M1055.71 157.876H988.568M1055.71 157.876L1044.96 148.115M1122.85 157.876L1109.95 148.115M1122.85 157.876H1189.99M1025.4 130.355H1086.48M1025.4 130.355L1016.48 122.254M1025.4 130.355H964.323M1025.4 130.355L1034.88 138.96M1086.48 130.355L1075.78 122.254M1086.48 130.355L1097.86 138.96M1086.48 130.355H1147.57M1016.48 122.254H1075.78M1016.48 122.254H957.185M1016.48 122.254L1008.07 114.612M1075.78 122.254L1065.68 114.612M1075.78 122.254H1135.07M992.591 100.56H1047.11M992.591 100.56L985.461 94.0856M992.591 100.56H938.073M992.591 100.56L1000.12 107.392M1047.11 100.56L1038.55 94.0856M1047.11 100.56L1056.14 107.392M1047.11 100.56H1101.63M985.461 94.0856H1038.55M985.461 94.0856H932.369M985.461 94.0856L978.695 87.9411M1038.55 94.0856L1030.43 87.9411M1038.55 94.0856H1091.65M966.146 76.5463H1015.38M966.146 76.5463L960.318 71.2537M966.146 76.5463H916.917M966.146 76.5463L972.265 82.1022M1015.38 76.5463L1008.38 71.2537M1015.38 76.5463L1022.72 82.1022M1015.38 76.5463H1064.6M960.318 71.2537H1008.38M960.318 71.2537H912.254M960.318 71.2537L954.759 66.2059M1008.38 71.2537L1001.71 66.2059M1008.38 71.2537H1056.44M944.378 56.7798L945 57.3446L945.626 57.9122L949.451 61.3864M944.378 56.7798H989.254M944.378 56.7798L939.525 52.3729M944.378 56.7798H899.503M989.254 56.7798L983.43 52.3729M989.254 56.7798L995.341 61.3864M989.254 56.7798H1034.13M939.525 52.3729H983.43M939.525 52.3729H895.62M939.525 52.3729L934.877 48.1523M983.43 52.3729L977.852 48.1523M983.43 52.3729H1027.33M926.147 40.2255H967.377M926.147 40.2255L922.043 36.4989M926.147 40.2255H884.918M926.147 40.2255L930.421 44.1067M967.377 40.2255L964.275 37.879L962.452 36.4989M967.377 40.2255L972.506 44.1067M967.377 40.2255H1008.61M922.043 36.4989H962.452M922.043 36.4989H881.635M922.043 36.4989L918.585 33.3575L918.1 32.9177M962.452 36.4989L957.72 32.9177M962.452 36.4989H1002.86M910.657 26.159H948.788M910.657 26.159L909.766 25.3494L907.141 22.9667M910.657 26.159H872.526M910.657 26.159L911.556 26.9758L913.382 28.633L914.307 29.4735M948.788 26.159L944.569 22.9667M948.788 26.159L950.411 27.3874L951.506 28.2161L953.168 29.4735M948.788 26.159H986.919M907.141 22.9667H944.569M907.141 22.9667H869.712M907.141 22.9667L904.588 20.6482L903.752 19.89M944.569 22.9667L943.027 21.7996L942.01 21.0304L940.503 19.89M944.569 22.9667H981.997M897.331 14.0588H932.798M897.331 14.0588L895.415 12.3193L894.286 11.2934M897.331 14.0588H861.865M897.331 14.0588L900.485 16.9225M932.798 14.0588L930.044 11.976L929.593 11.6338L929.143 11.2934M932.798 14.0588L934.673 15.4778L936.582 16.9225M932.798 14.0588H968.263M894.286 11.2934H929.143M894.286 11.2934L892.802 9.94611L892.07 9.28102L891.706 8.95063L891.344 8.62165M894.286 11.2934H859.429M929.143 11.2934H964M929.143 11.2934L925.612 8.62165M1416.43 204.362H1339.05M1416.43 204.362L1390.85 191.46M1416.43 204.362H1439.61M1416.43 204.362L1439.61 216.058M1344.95 168.304H1414.39M1344.95 168.304L1324.28 157.876M1344.95 168.304H1275.51M1344.95 168.304L1367.09 179.472M1414.39 168.304L1391.42 157.876M1414.39 168.304L1438.99 179.472M1414.39 168.304H1439.61M1324.28 157.876H1391.42M1324.28 157.876H1257.14M1324.28 157.876L1304.93 148.115M1391.42 157.876L1369.92 148.115M1391.42 157.876H1439.61M1269.73 130.355H1330.81M1269.73 130.355L1253.67 122.254M1269.73 130.355H1208.65M1269.73 130.355L1286.78 138.96M1330.81 130.355L1312.96 122.254M1330.81 130.355L1349.76 138.96M1330.81 130.355H1391.89M1253.67 122.254H1312.96M1253.67 122.254H1194.37M1253.67 122.254L1238.52 114.612M1312.96 122.254L1296.13 114.612M1312.96 122.254H1372.26M1210.66 100.56H1265.18M1210.66 100.56L1197.83 94.0856M1210.66 100.56H1156.15M1210.66 100.56L1224.21 107.392M1265.18 100.56L1250.92 94.0856M1265.18 100.56L1280.23 107.392M1265.18 100.56H1319.7M1197.83 94.0856H1250.92M1197.83 94.0856H1144.74M1197.83 94.0856L1185.65 87.9411M1250.92 94.0856L1237.39 87.9411M1250.92 94.0856H1304.02M1163.06 76.5463H1212.29M1163.06 76.5463L1152.57 71.2537M1163.06 76.5463H1113.83M1163.06 76.5463L1174.08 82.1022M1212.29 76.5463L1200.64 71.2537M1212.29 76.5463L1224.53 82.1022M1212.29 76.5463H1261.52M1152.57 71.2537H1200.64M1152.57 71.2537H1104.51M1152.57 71.2537L1142.57 66.2059M1200.64 71.2537L1189.52 66.2059M1200.64 71.2537H1248.7M1123.88 56.7798H1168.76M1123.88 56.7798L1115.14 52.3729M1123.88 56.7798H1079M1123.88 56.7798L1133.01 61.3864M1168.76 56.7798L1159.05 52.3729M1168.76 56.7798L1178.9 61.3864M1168.76 56.7798H1213.63M1115.14 52.3729H1159.05M1115.14 52.3729H1071.24M1115.14 52.3729L1106.78 48.1523M1159.05 52.3729L1149.75 48.1523M1159.05 52.3729H1202.95M1091.07 40.2255H1132.29M1091.07 40.2255L1083.68 36.4989M1091.07 40.2255H1049.84M1091.07 40.2255L1098.76 44.1067M1132.29 40.2255L1124.09 36.4989M1132.29 40.2255L1140.84 44.1067M1132.29 40.2255H1173.52M1083.68 36.4989H1124.09M1083.68 36.4989H1043.27M1083.68 36.4989L1076.58 32.9177M1124.09 36.4989L1116.2 32.9177M1124.09 36.4989H1164.5M1063.18 26.159H1101.31M1063.18 26.159L1056.85 22.9667M1063.18 26.159H1025.05M1063.18 26.159L1064.8 26.9758L1065.62 27.3874L1069.75 29.4735M1101.31 26.159L1094.28 22.9667M1101.31 26.159L1108.61 29.4735M1101.31 26.159H1139.44M1056.85 22.9667H1094.28M1056.85 22.9667H1019.43M1056.85 22.9667L1050.75 19.89M1094.28 22.9667L1087.51 19.89M1094.28 22.9667H1131.71M1039.2 14.0588H1074.66M1039.2 14.0588L1033.71 11.2934M1039.2 14.0588H1003.73M1039.2 14.0588L1044.87 16.9225M1074.66 14.0588L1070.07 11.976L1069.32 11.6338L1068.57 11.2934M1074.66 14.0588L1080.97 16.9225M1074.66 14.0588H1110.13M1033.71 11.2934H1068.57M1033.71 11.2934L1029.07 8.95063L1028.42 8.62165M1033.71 11.2934H998.857M1068.57 11.2934H1103.43M1068.57 11.2934L1062.69 8.62165M1428.74 100.56L1410.2 94.0856M1428.74 100.56H1374.22M1428.74 100.56L1439.61 104.358M1428.74 100.56H1439.61M1410.2 94.0856H1357.11M1410.2 94.0856L1392.61 87.9411M1410.2 94.0856H1439.61M1359.98 76.5463H1409.21M1359.98 76.5463L1344.83 71.2537M1359.98 76.5463H1310.75M1359.98 76.5463L1375.89 82.1022M1409.21 76.5463L1392.89 71.2537M1409.21 76.5463L1426.34 82.1022M1409.21 76.5463H1439.61M1344.83 71.2537H1392.89M1344.83 71.2537H1296.76M1344.83 71.2537L1330.37 66.2059M1392.89 71.2537L1377.32 66.2059M1392.89 71.2537H1439.61M1303.38 56.7798H1348.26M1303.38 56.7798L1290.76 52.3729M1303.38 56.7798H1258.51M1303.38 56.7798L1316.57 61.3864M1348.26 56.7798L1334.67 52.3729M1348.26 56.7798L1362.46 61.3864M1348.26 56.7798H1393.13M1290.76 52.3729H1334.67M1290.76 52.3729H1246.86M1290.76 52.3729L1278.68 48.1523M1334.67 52.3729L1321.66 48.1523M1334.67 52.3729H1378.57M1255.98 40.2255H1297.21M1255.98 40.2255L1245.31 36.4989M1255.98 40.2255H1214.75M1255.98 40.2255L1267.1 44.1067M1297.21 40.2255L1285.72 36.4989M1297.21 40.2255L1309.18 44.1067M1297.21 40.2255H1338.44M1245.31 36.4989H1285.72M1245.31 36.4989H1204.9M1245.31 36.4989L1235.06 32.9177M1285.72 36.4989L1274.68 32.9177M1285.72 36.4989H1326.13M1215.71 26.159H1253.84M1215.71 26.159L1206.57 22.9667M1215.71 26.159H1177.58M1215.71 26.159L1225.2 29.4735M1253.84 26.159L1243.99 22.9667M1253.84 26.159L1264.06 29.4735M1253.84 26.159H1291.97M1206.57 22.9667H1243.99M1206.57 22.9667H1169.14M1206.57 22.9667L1197.76 19.89M1243.99 22.9667L1234.51 19.89M1243.99 22.9667H1281.42M1181.06 14.0588H1216.53M1181.06 14.0588L1173.14 11.2934M1181.06 14.0588H1145.59M1181.06 14.0588L1189.26 16.9225M1216.53 14.0588L1208 11.2934M1216.53 14.0588L1225.36 16.9225M1216.53 14.0588H1251.99M1173.14 11.2934H1208M1173.14 11.2934L1165.49 8.62165M1173.14 11.2934H1138.29M1208 11.2934H1242.86M1208 11.2934L1199.76 8.62165M1420.9 40.2255L1406.95 36.4989M1420.9 40.2255H1379.67M1420.9 40.2255L1435.43 44.1067M1420.9 40.2255H1439.61M1406.95 36.4989H1366.54M1406.95 36.4989L1393.54 32.9177M1406.95 36.4989H1439.61M1368.23 26.159H1406.36M1368.23 26.159L1356.28 22.9667M1368.23 26.159H1330.1M1368.23 26.159L1380.64 29.4735M1406.36 26.159L1393.71 22.9667M1406.36 26.159L1419.5 29.4735M1406.36 26.159H1439.61M1356.28 22.9667H1393.71M1356.28 22.9667H1318.85M1356.28 22.9667L1344.76 19.89M1393.71 22.9667L1381.51 19.89M1393.71 22.9667H1431.14M1322.93 14.0588H1358.39M1322.93 14.0588L1312.57 11.2934M1322.93 14.0588H1287.46M1322.93 14.0588L1333.65 16.9225M1358.39 14.0588L1347.43 11.2934M1358.39 14.0588L1369.74 16.9225M1358.39 14.0588H1393.86M1312.57 11.2934H1347.43M1312.57 11.2934L1302.57 8.62165M1312.57 11.2934H1277.71M1347.43 11.2934H1382.29M1347.43 11.2934L1336.84 8.62165M1369.74 16.9225L1381.51 19.89M1369.74 16.9225H1405.84M1369.74 16.9225H1333.65M1393.86 14.0588L1382.29 11.2934M1393.86 14.0588L1405.84 16.9225M1393.86 14.0588H1429.32M1382.29 11.2934H1417.14M1382.29 11.2934L1371.1 8.62165M1336.84 8.62165H1302.57M1336.84 8.62165H1371.1M1336.84 8.62165L1326.6 6.03835M1405.84 16.9225L1418.26 19.89M1405.84 16.9225H1439.61M1429.32 14.0588L1417.14 11.2934M1429.32 14.0588L1439.61 16.3942M1429.32 14.0588H1439.61M1417.14 11.2934L1405.37 8.62165M1417.14 11.2934H1439.61M1371.1 8.62165H1405.37M1371.1 8.62165L1360.29 6.03835M1405.37 8.62165L1393.99 6.03835M1405.37 8.62165H1439.61M1381.51 19.89H1418.26M1381.51 19.89H1344.76M1431.14 22.9667L1418.26 19.89M1431.14 22.9667L1439.61 24.992M1431.14 22.9667H1439.61M1418.26 19.89H1439.61M1344.76 19.89H1308.01M1344.76 19.89L1333.65 16.9225M1333.65 16.9225H1297.55M1419.5 29.4735L1433.16 32.9177M1419.5 29.4735H1380.64M1419.5 29.4735H1439.61M1439.73 26.159H1439.61M1433.16 32.9177H1393.54M1433.16 32.9177L1439.61 34.5455M1433.16 32.9177H1439.61M1393.54 32.9177H1353.92M1393.54 32.9177L1380.64 29.4735M1380.64 29.4735H1341.78M1225.36 16.9225L1234.51 19.89M1225.36 16.9225H1261.45M1225.36 16.9225H1189.26M1251.99 14.0588L1242.86 11.2934M1251.99 14.0588L1261.45 16.9225M1251.99 14.0588H1287.46M1242.86 11.2934H1277.71M1242.86 11.2934L1234.03 8.62165M1199.76 8.62165H1234.03M1199.76 8.62165L1191.8 6.03835M1199.76 8.62165H1165.49M1261.45 16.9225L1271.26 19.89M1261.45 16.9225H1297.55M1287.46 14.0588L1277.71 11.2934M1287.46 14.0588L1297.55 16.9225M1277.71 11.2934L1268.3 8.62165M1234.03 8.62165H1268.3M1234.03 8.62165L1225.5 6.03835M1297.55 16.9225L1308.01 19.89M1302.57 8.62165H1268.3M1302.57 8.62165L1292.89 6.03835M1268.3 8.62165L1259.2 6.03835M1234.51 19.89H1271.26M1234.51 19.89H1197.76M1281.42 22.9667L1271.26 19.89M1281.42 22.9667L1291.97 26.159M1281.42 22.9667H1318.85M1271.26 19.89H1308.01M1197.76 19.89H1161.01M1197.76 19.89L1189.26 16.9225M1308.01 19.89L1318.85 22.9667M1189.26 16.9225H1153.16M1291.97 26.159L1302.92 29.4735M1291.97 26.159H1330.1M1318.85 22.9667L1330.1 26.159M1330.1 26.159L1341.78 29.4735M1264.06 29.4735L1274.68 32.9177M1264.06 29.4735H1302.92M1264.06 29.4735H1225.2M1302.92 29.4735L1314.3 32.9177M1302.92 29.4735H1341.78M1341.78 29.4735L1353.92 32.9177M1274.68 32.9177H1314.3M1274.68 32.9177H1235.06M1326.13 36.4989L1314.3 32.9177M1326.13 36.4989L1338.44 40.2255M1326.13 36.4989H1366.54M1314.3 32.9177H1353.92M1235.06 32.9177H1195.44M1235.06 32.9177L1225.2 29.4735M1353.92 32.9177L1366.54 36.4989M1225.2 29.4735H1186.34M1338.44 40.2255L1351.27 44.1067M1338.44 40.2255H1379.67M1366.54 36.4989L1379.67 40.2255M1379.67 40.2255L1393.35 44.1067M1309.18 44.1067L1321.66 48.1523M1309.18 44.1067H1351.27M1309.18 44.1067H1267.1M1351.27 44.1067L1364.63 48.1523M1351.27 44.1067H1393.35M1393.35 44.1067L1407.61 48.1523M1393.35 44.1067H1435.43M1435.43 44.1067H1439.61M1435.43 44.1067L1439.61 45.2226M1321.66 48.1523H1364.63M1321.66 48.1523H1278.68M1378.57 52.3729L1364.63 48.1523M1378.57 52.3729L1393.13 56.7798M1378.57 52.3729H1422.48M1364.63 48.1523H1407.61M1278.68 48.1523H1235.7M1278.68 48.1523L1267.1 44.1067M1407.61 48.1523L1422.48 52.3729M1407.61 48.1523H1439.61M1267.1 44.1067H1225.01M1393.13 56.7798L1408.35 61.3864M1393.13 56.7798H1438.01M1422.48 52.3729L1438.01 56.7798M1422.48 52.3729H1439.61M1439.84 48.1523H1439.61M1438.01 56.7798L1439.61 57.2346M1438.01 56.7798H1439.61M1362.46 61.3864L1377.32 66.2059M1362.46 61.3864H1408.35M1362.46 61.3864H1316.57M1408.35 61.3864L1424.28 66.2059M1408.35 61.3864H1439.61M1440 57.3446L1439.61 57.2346M1377.32 66.2059H1424.28M1377.32 66.2059H1330.37M1424.28 66.2059H1439.61M1424.28 66.2059L1439.61 70.848M1330.37 66.2059H1283.42M1330.37 66.2059L1316.57 61.3864M1316.57 61.3864H1270.68M1426.34 82.1022H1375.89M1426.34 82.1022L1439.61 86.4062M1426.34 82.1022H1439.61M1439.98 76.5463H1439.61M1375.89 82.1022H1325.43M1375.89 82.1022L1392.61 87.9411M1439.76 86.4536L1439.61 86.4062M1080.97 16.9225L1087.51 19.89M1080.97 16.9225H1117.07M1080.97 16.9225H1044.87M1110.13 14.0588L1103.43 11.2934M1110.13 14.0588L1117.07 16.9225M1110.13 14.0588H1145.59M1103.43 11.2934H1138.29M1103.43 11.2934L1096.96 8.62165M1062.69 8.62165H1096.96M1062.69 8.62165L1060.53 7.64281L1057 6.03835M1062.69 8.62165H1028.42M1117.07 16.9225L1124.26 19.89M1117.07 16.9225H1153.16M1145.59 14.0588L1138.29 11.2934M1145.59 14.0588L1153.16 16.9225M1138.29 11.2934L1131.22 8.62165M1096.96 8.62165H1131.22M1096.96 8.62165L1090.7 6.03835M1153.16 16.9225L1161.01 19.89M1165.49 8.62165L1158.1 6.03835M1165.49 8.62165H1131.22M1131.22 8.62165L1130.36 8.29362L1128.64 7.64281L1124.4 6.03835M1087.51 19.89H1124.26M1087.51 19.89H1050.75M1131.71 22.9667L1124.26 19.89M1131.71 22.9667L1139.44 26.159M1131.71 22.9667H1169.14M1124.26 19.89H1161.01M1050.75 19.89H1014M1050.75 19.89L1044.87 16.9225M1161.01 19.89L1169.14 22.9667M1044.87 16.9225H1008.78M1139.44 26.159L1147.48 29.4735M1139.44 26.159H1177.58M1169.14 22.9667L1170.18 23.3589L1177.58 26.159M1177.58 26.159L1186.34 29.4735M1108.61 29.4735L1109.55 29.8971L1116.2 32.9177M1108.61 29.4735H1147.48M1108.61 29.4735H1069.75M1147.48 29.4735L1155.82 32.9177M1147.48 29.4735H1186.34M1186.34 29.4735L1195.44 32.9177M1116.2 32.9177H1155.82M1116.2 32.9177H1076.58M1164.5 36.4989L1155.82 32.9177M1164.5 36.4989L1173.52 40.2255M1164.5 36.4989H1204.9M1155.82 32.9177H1195.44M1076.58 32.9177H1036.96M1076.58 32.9177L1069.75 29.4735M1195.44 32.9177L1204.9 36.4989M1069.75 29.4735H1030.89M1173.52 40.2255L1182.93 44.1067M1173.52 40.2255H1214.75M1204.9 36.4989L1214.75 40.2255M1214.75 40.2255L1225.01 44.1067M1140.84 44.1067L1149.75 48.1523M1140.84 44.1067H1182.93M1140.84 44.1067H1098.76M1182.93 44.1067L1192.73 48.1523M1182.93 44.1067H1225.01M1225.01 44.1067L1235.7 48.1523M1149.75 48.1523H1192.73M1149.75 48.1523H1106.78M1202.95 52.3729L1192.73 48.1523M1202.95 52.3729L1213.63 56.7798M1202.95 52.3729H1246.86M1192.73 48.1523H1235.7M1106.78 48.1523H1063.8M1106.78 48.1523L1098.76 44.1067M1235.7 48.1523L1246.86 52.3729M1098.76 44.1067H1056.67M1213.63 56.7798L1224.79 61.3864M1213.63 56.7798H1258.51M1246.86 52.3729L1258.51 56.7798M1258.51 56.7798L1270.68 61.3864M1178.9 61.3864L1189.52 66.2059M1178.9 61.3864H1224.79M1178.9 61.3864H1133.01M1224.79 61.3864L1236.47 66.2059M1224.79 61.3864H1270.68M1270.68 61.3864L1283.42 66.2059M1189.52 66.2059H1236.47M1189.52 66.2059H1142.57M1248.7 71.2537L1236.47 66.2059M1248.7 71.2537L1261.52 76.5463M1248.7 71.2537H1296.76M1236.47 66.2059H1283.42M1142.57 66.2059H1095.61M1142.57 66.2059L1133.01 61.3864M1283.42 66.2059L1296.76 71.2537M1133.01 61.3864H1087.12M1261.52 76.5463L1274.98 82.1022M1261.52 76.5463H1310.75M1296.76 71.2537L1310.75 76.5463M1310.75 76.5463L1325.43 82.1022M1224.53 82.1022L1237.39 87.9411M1224.53 82.1022H1274.98M1224.53 82.1022H1174.08M1274.98 82.1022L1289.13 87.9411M1274.98 82.1022H1325.43M1325.43 82.1022L1340.87 87.9411M1237.39 87.9411H1289.13M1237.39 87.9411H1185.65M1304.02 94.0856L1289.13 87.9411M1304.02 94.0856L1319.7 100.56M1304.02 94.0856H1357.11M1289.13 87.9411H1340.87M1185.65 87.9411H1133.91M1185.65 87.9411L1174.08 82.1022M1340.87 87.9411L1357.11 94.0856M1340.87 87.9411H1392.61M1174.08 82.1022H1123.62M1319.7 100.56L1336.25 107.392M1319.7 100.56H1374.22M1357.11 94.0856L1374.22 100.56M1392.61 87.9411H1439.61M1374.22 100.56L1392.28 107.392M1280.23 107.392L1296.13 114.612M1280.23 107.392H1336.25M1280.23 107.392H1224.21M1336.25 107.392L1353.75 114.612M1336.25 107.392H1392.28M1392.28 107.392L1411.36 114.612M1392.28 107.392H1439.61M1296.13 114.612H1353.75M1296.13 114.612H1238.52M1372.26 122.254L1353.75 114.612M1372.26 122.254L1391.89 130.355M1372.26 122.254H1431.56M1353.75 114.612H1411.36M1238.52 114.612H1180.91M1238.52 114.612L1224.21 107.392M1411.36 114.612L1431.56 122.254M1411.36 114.612H1439.61M1224.21 107.392H1168.18M1391.89 130.355L1412.73 138.96M1391.89 130.355H1439.61M1431.56 122.254H1439.61M1431.56 122.254L1439.61 125.302M1349.76 138.96L1369.92 148.115M1349.76 138.96H1412.73M1349.76 138.96H1286.78M1412.73 138.96L1434.91 148.115M1412.73 138.96H1439.61M1369.92 148.115H1434.91M1369.92 148.115H1304.93M1434.91 148.115L1439.61 150.054M1434.91 148.115H1439.61M1304.93 148.115H1239.94M1304.93 148.115L1286.78 138.96M1286.78 138.96H1223.81M1438.99 179.472H1367.09M1438.99 179.472H1439.61M1438.99 179.472L1439.61 179.756M1367.09 179.472H1295.19M1367.09 179.472L1390.85 191.46M936.582 16.9225L938.036 18.0226L938.525 18.393L940.503 19.89M936.582 16.9225H972.679M936.582 16.9225H900.485M968.263 14.0588L965.052 11.976L964 11.2934M968.263 14.0588L972.119 16.5589L972.679 16.9225M968.263 14.0588H1003.73M964 11.2934H998.857M964 11.2934L959.881 8.62165M925.612 8.62165H959.881M925.612 8.62165L924.318 7.64281L922.198 6.03835M925.612 8.62165H891.344M972.679 16.9225L973.807 17.6542L977.254 19.89M972.679 16.9225H1008.78M1003.73 14.0588L998.857 11.2934M1003.73 14.0588L1008.78 16.9225M998.857 11.2934L995.311 9.28102L994.149 8.62165M959.881 8.62165H994.149M959.881 8.62165L955.898 6.03835M1008.78 16.9225L1014 19.89M1028.42 8.62165L1027.77 8.29362L1023.3 6.03835M1028.42 8.62165H994.149M994.149 8.62165L992.424 7.64281L989.598 6.03835M940.503 19.89H977.254M940.503 19.89H903.752M981.997 22.9667L977.254 19.89M981.997 22.9667L986.919 26.159M981.997 22.9667H1019.43M977.254 19.89H1014M903.752 19.89H867.002M903.752 19.89L900.485 16.9225M1014 19.89L1019.43 22.9667M900.485 16.9225H864.388M986.919 26.159L990.09 28.2161L990.734 28.633L992.029 29.4735M986.919 26.159H1025.05M1019.43 22.9667L1025.05 26.159M1025.05 26.159L1030.89 29.4735M953.168 29.4735L957.72 32.9177M953.168 29.4735H992.029M953.168 29.4735H914.307M992.029 29.4735L997.339 32.9177M992.029 29.4735H1030.89M1030.89 29.4735L1036.96 32.9177M957.72 32.9177H997.339M957.72 32.9177H918.1M1002.86 36.4989L999.384 34.2441L998.7 33.7996L997.339 32.9177M1002.86 36.4989L1008.61 40.2255M1002.86 36.4989H1043.27M997.339 32.9177H1036.96M918.1 32.9177H878.48M918.1 32.9177L914.307 29.4735M1036.96 32.9177L1043.27 36.4989M914.307 29.4735H875.445M1008.61 40.2255L1014.59 44.1067M1008.61 40.2255H1049.84M1043.27 36.4989L1049.84 40.2255M1049.84 40.2255L1056.67 44.1067M972.506 44.1067L975.151 46.1081L975.821 46.6153L977.852 48.1523M972.506 44.1067H1014.59M972.506 44.1067H930.421M1014.59 44.1067L1020.83 48.1523M1014.59 44.1067H1056.67M1056.67 44.1067L1063.8 48.1523M977.852 48.1523H1020.83M977.852 48.1523H934.877M1027.33 52.3729L1020.83 48.1523M1027.33 52.3729L1034.13 56.7798M1027.33 52.3729H1071.24M1020.83 48.1523H1063.8M934.877 48.1523H891.901M934.877 48.1523L933.745 47.125L930.421 44.1067M1063.8 48.1523L1071.24 52.3729M930.421 44.1067H888.338M1034.13 56.7798L1041.23 61.3864M1034.13 56.7798H1079M1071.24 52.3729L1079 56.7798M1079 56.7798L1087.12 61.3864M995.341 61.3864L1001.71 66.2059M995.341 61.3864H1041.23M995.341 61.3864H949.451M1041.23 61.3864L1048.66 66.2059M1041.23 61.3864H1087.12M1087.12 61.3864L1095.61 66.2059M1001.71 66.2059H1048.66M1001.71 66.2059H954.759M1056.44 71.2537L1048.66 66.2059M1056.44 71.2537L1064.6 76.5463M1056.44 71.2537H1104.51M1048.66 66.2059H1095.61M954.759 66.2059H907.807M954.759 66.2059L949.451 61.3864M1095.61 66.2059L1104.51 71.2537M949.451 61.3864H903.561M1064.6 76.5463L1073.17 82.1022M1064.6 76.5463H1113.83M1104.51 71.2537L1113.83 76.5463M1113.83 76.5463L1123.62 82.1022M1022.72 82.1022L1030.43 87.9411M1022.72 82.1022H1073.17M1022.72 82.1022H972.265M1073.17 82.1022L1082.17 87.9411M1073.17 82.1022H1123.62M1123.62 82.1022L1133.91 87.9411M1030.43 87.9411H1082.17M1030.43 87.9411H978.695M1091.65 94.0856L1082.17 87.9411M1091.65 94.0856L1101.63 100.56M1091.65 94.0856H1144.74M1082.17 87.9411H1133.91M978.695 87.9411H926.956M978.695 87.9411L972.265 82.1022M1133.91 87.9411L1144.74 94.0856M972.265 82.1022H921.812M1101.63 100.56L1112.16 107.392M1101.63 100.56H1156.15M1144.74 94.0856L1156.15 100.56M1156.15 100.56L1168.18 107.392M1056.14 107.392L1065.68 114.612M1056.14 107.392H1112.16M1056.14 107.392H1000.12M1112.16 107.392L1123.29 114.612M1112.16 107.392H1168.18M1168.18 107.392L1180.91 114.612M1065.68 114.612H1123.29M1065.68 114.612H1008.07M1135.07 122.254L1123.29 114.612M1135.07 122.254L1147.57 130.355M1135.07 122.254H1194.37M1123.29 114.612H1180.91M1008.07 114.612H950.453M1008.07 114.612L1000.12 107.392M1180.91 114.612L1194.37 122.254M1000.12 107.392H944.093M1147.57 130.355L1160.83 138.96M1147.57 130.355H1208.65M1194.37 122.254L1208.65 130.355M1208.65 130.355L1223.81 138.96M1097.86 138.96L1109.95 148.115M1097.86 138.96H1160.83M1097.86 138.96H1034.88M1160.83 138.96L1174.95 148.115M1160.83 138.96H1223.81M1223.81 138.96L1239.94 148.115M1109.95 148.115H1174.95M1109.95 148.115H1044.96M1189.99 157.876L1174.95 148.115M1189.99 157.876L1206.07 168.304M1189.99 157.876H1257.14M1174.95 148.115H1239.94M1044.96 148.115H979.969M1044.96 148.115L1034.88 138.96M1239.94 148.115L1257.14 157.876M1034.88 138.96H971.903M1206.07 168.304L1223.29 179.472M1206.07 168.304H1275.51M1257.14 157.876L1275.51 168.304M1275.51 168.304L1295.19 179.472M1151.39 179.472L1167.23 191.46M1151.39 179.472H1223.29M1151.39 179.472H1079.49M1223.29 179.472L1241.77 191.46M1223.29 179.472H1295.19M1295.19 179.472L1316.31 191.46M1167.23 191.46H1241.77M1167.23 191.46H1092.7M1261.67 204.362L1241.77 191.46M1261.67 204.362L1283.13 218.287M1261.67 204.362H1339.05M1241.77 191.46H1316.31M1092.7 191.46H1018.16M1092.7 191.46L1079.49 179.472M1316.31 191.46L1339.05 204.362M1316.31 191.46H1390.85M1079.49 179.472H1007.6M1283.13 218.287L1306.37 233.361M1283.13 218.287H1363.58M1339.05 204.362L1363.58 218.287M1390.85 191.46H1439.61M1363.58 218.287L1390.14 233.361M1363.58 218.287H1439.61M1222.61 233.361L1244.24 249.732M1222.61 233.361H1306.37M1222.61 233.361H1138.84M1306.37 233.361L1331.62 249.732M1306.37 233.361H1390.14M1390.14 233.361L1418.99 249.732M1390.14 233.361H1439.61M1244.24 249.732H1331.62M1244.24 249.732H1156.87M1359.13 267.577L1331.62 249.732M1359.13 267.577L1389.23 287.102M1359.13 267.577H1439.61M1331.62 249.732H1418.99M1156.87 249.732H1069.49M1156.87 249.732L1138.84 233.361M1418.99 249.732H1439.61M1418.99 249.732L1439.61 261.437M1138.84 233.361H1055.07M1389.23 287.102L1422.31 308.558M1389.23 287.102H1439.61M1321.98 308.558L1353.28 332.246M1321.98 308.558H1422.31M1321.98 308.558H1221.65M1422.31 308.558L1439.61 319.78M1422.31 308.558H1439.61M1353.28 332.246H1247.74M1353.28 332.246L1439.61 332.245M1247.74 332.246H1142.19M1247.74 332.246L1221.65 308.558M1221.65 308.558H1121.32M792.194 16.9225L792.355 17.2877L792.516 17.6542L792.679 18.0226L792.841 18.393L793.335 19.513L793.501 19.89M792.194 16.9225H828.291M792.194 16.9225H756.097M826.399 14.0588L825.022 11.976L824.572 11.2934M826.399 14.0588L827.574 15.8367L828.291 16.9225M826.399 14.0588H861.865M824.572 11.2934H859.429M824.572 11.2934L823.242 9.28102L822.806 8.62165M788.537 8.62165L788.393 8.29362L787.822 6.99674L787.399 6.03835M788.537 8.62165H822.806M788.537 8.62165H754.269M828.291 16.9225L828.532 17.2877L828.775 17.6542L829.018 18.0226L829.263 18.393L830.251 19.89M828.291 16.9225H864.388M861.865 14.0588L860.03 11.976L859.429 11.2934M861.865 14.0588L864.388 16.9225M859.429 11.2934L858.241 9.94611L857.364 8.95063L857.075 8.62165M822.806 8.62165L822.59 8.29362L822.16 7.64281L821.732 6.99674L821.521 6.67586L821.099 6.03835M822.806 8.62165H857.075M864.388 16.9225L866.34 19.1379L867.002 19.89M891.344 8.62165L889.201 6.67586L888.499 6.03835M891.344 8.62165H857.075M857.075 8.62165L855.08 6.35639L854.798 6.03835M793.501 19.89H830.251M793.501 19.89H756.751M832.284 22.9667L830.251 19.89M832.284 22.9667L834.394 26.159M832.284 22.9667H869.712M830.251 19.89H867.002M756.751 19.89H720M756.751 19.89L756.097 16.9225M867.002 19.89L869.712 22.9667M756.097 16.9225H720M834.394 26.159L834.934 26.9758L835.753 28.2161L836.584 29.4735M834.394 26.159H872.526M869.712 22.9667L870.059 23.3589L872.526 26.159M872.526 26.159L872.884 26.5664L873.245 26.9758L873.607 27.3874L875.445 29.4735M797.723 29.4735L799.24 32.9177M797.723 29.4735H836.584M797.723 29.4735H758.861M836.584 29.4735L838.86 32.9177M836.584 29.4735H875.445M875.445 29.4735L877.71 32.044L878.094 32.4799L878.48 32.9177M799.24 32.9177H838.86M799.24 32.9177H759.62M841.226 36.4989L841.528 36.9567L841.833 37.4164L842.138 37.879L843.689 40.2255M841.226 36.4989L840.031 34.6905L839.736 34.2441L839.443 33.7996L838.86 32.9177M841.226 36.4989H881.635M838.86 32.9177H878.48M759.62 32.9177H720M759.62 32.9177L758.861 29.4735M878.48 32.9177L881.635 36.4989M758.861 29.4735H720M843.689 40.2255L845.927 43.6127L846.253 44.1067M843.689 40.2255H884.918M881.635 36.4989L882.444 37.4164L884.918 40.2255M884.918 40.2255L886.184 41.6622L888.338 44.1067M804.168 44.1067L805.051 46.1081L805.273 46.6153L805.951 48.1523M804.168 44.1067H846.253M804.168 44.1067H762.085M846.253 44.1067L848.926 48.1523M846.253 44.1067H888.338M888.338 44.1067L891.901 48.1523M805.951 48.1523H848.926M805.951 48.1523H762.975M851.715 52.3729L848.926 48.1523M851.715 52.3729L854.627 56.7798M851.715 52.3729H895.62M848.926 48.1523H891.901M762.975 48.1523H720M762.975 48.1523L762.749 47.125L762.304 45.1021L762.085 44.1067M891.901 48.1523L895.62 52.3729M762.085 44.1067H720M854.627 56.7798L856.897 60.2155L857.671 61.3864M854.627 56.7798H899.503M895.62 52.3729L899.503 56.7798M899.503 56.7798L901.509 59.0574L903.561 61.3864M811.781 61.3864L813.903 66.2059M811.781 61.3864H857.671M811.781 61.3864H765.89M857.671 61.3864L860.855 66.2059M857.671 61.3864H903.561M903.561 61.3864L907.807 66.2059M813.903 66.2059H860.855M813.903 66.2059H766.952M864.191 71.2537L863.342 69.9697L860.855 66.2059M864.191 71.2537L867.688 76.5463M864.191 71.2537H912.254M860.855 66.2059H907.807M766.952 66.2059H720M766.952 66.2059L765.89 61.3864M907.807 66.2059L912.254 71.2537M765.89 61.3864H720M867.688 76.5463L871.359 82.1022M867.688 76.5463H916.917M912.254 71.2537L916.917 76.5463M916.917 76.5463L921.812 82.1022M820.906 82.1022L823.478 87.9411M820.906 82.1022H871.359M820.906 82.1022H770.453M871.359 82.1022L875.217 87.9411M871.359 82.1022H921.812M921.812 82.1022L926.956 87.9411M823.478 87.9411H875.217M823.478 87.9411H771.739M879.277 94.0856L875.217 87.9411M879.277 94.0856L883.555 100.56M879.277 94.0856H932.369M875.217 87.9411H926.956M771.739 87.9411H720M771.739 87.9411L770.61 82.8163L770.453 82.1022M926.956 87.9411L932.369 94.0856M770.453 82.1022H720M883.555 100.56L888.069 107.392M883.555 100.56H938.073M932.369 94.0856L936.618 98.9094L938.073 100.56M938.073 100.56L944.093 107.392M832.046 107.392L835.226 114.612M832.046 107.392H888.069M832.046 107.392H776.023M888.069 107.392L892.84 114.612M888.069 107.392H944.093M944.093 107.392L950.453 114.612M835.226 114.612H892.84M835.226 114.612H777.613M897.889 122.254L892.84 114.612M897.889 122.254L903.242 130.355M897.889 122.254H957.185M892.84 114.612H950.453M777.613 114.612H720M777.613 114.612L776.023 107.392M950.453 114.612L957.185 122.254M776.023 107.392H720M903.242 130.355L908.927 138.96M903.242 130.355H964.323M957.185 122.254L964.323 130.355M964.323 130.355L971.903 138.96M845.952 138.96L849.985 148.115M845.952 138.96H908.927M845.952 138.96H782.976M908.927 138.96L914.977 148.115M908.927 138.96H971.903M971.903 138.96L979.969 148.115M849.985 148.115H914.977M849.985 148.115H784.992M921.426 157.876L914.977 148.115M921.426 157.876L928.317 168.304M921.426 157.876H988.568M914.977 148.115H979.969M784.992 148.115H720M784.992 148.115L782.976 138.96M979.969 148.115L988.568 157.876M782.976 138.96H720M928.317 168.304L935.696 179.472M928.317 168.304H997.756M988.568 157.876L997.756 168.304M997.756 168.304L1007.6 179.472M863.797 179.472L869.078 191.46M863.797 179.472H935.696M863.797 179.472H791.899M935.696 179.472L943.617 191.46M935.696 179.472H1007.6M1007.6 179.472L1018.16 191.46M869.078 191.46H943.617M869.078 191.46H794.539M952.142 204.362L943.617 191.46M952.142 204.362L961.343 218.287M952.142 204.362H1029.52M943.617 191.46H1018.16M794.539 191.46H720M794.539 191.46L791.899 179.472M1018.16 191.46L1029.52 204.362M791.899 179.472H720M961.343 218.287L971.304 233.361M961.343 218.287H1041.79M1029.52 204.362L1041.79 218.287M1041.79 218.287L1055.07 233.361M887.536 233.361L894.747 249.732M887.536 233.361H971.304M887.536 233.361H803.768M971.304 233.361L982.121 249.732M971.304 233.361H1055.07M1055.07 233.361L1069.49 249.732M894.747 249.732H982.121M894.747 249.732H807.374M993.912 267.577L982.121 249.732M993.912 267.577L1006.81 287.102M993.912 267.577H1085.22M982.121 249.732H1069.49M807.374 249.732H720M807.374 249.732L803.768 233.361M1069.49 249.732L1085.22 267.577M803.768 233.361H720M1006.81 287.102L1020.99 308.558M1006.81 287.102H1102.42M1085.22 267.577L1102.42 287.102M1102.42 287.102L1121.32 308.558M920.66 308.558L931.095 332.246M920.66 308.558H1020.99M920.66 308.558H820.33M1020.99 308.558L1036.64 332.246M1020.99 308.558H1121.32M1121.32 308.558L1142.19 332.246M1036.64 332.246H931.095M1036.64 332.246H1142.19M931.095 332.246H825.548M825.548 332.246H720M825.548 332.246L820.33 308.558M820.33 308.558H720M647.806 16.9225L647.645 17.2877L647.484 17.6542L647.321 18.0226L647.159 18.393L646.83 19.1379L646.665 19.513L646.499 19.89M647.806 16.9225H683.903M647.806 16.9225H611.709M684.534 14.0588L685.143 11.2934M684.534 14.0588L683.903 16.9225M684.534 14.0588H720M685.143 11.2934L685.217 10.9544L685.292 10.6169L685.366 10.2808L685.732 8.62165M685.143 11.2934H720M651.463 8.62165L651.607 8.29362L652.178 6.99674L652.601 6.03835M651.463 8.62165H685.732M651.463 8.62165H617.194M683.903 16.9225L683.822 17.2877L683.742 17.6542L683.66 18.0226L683.25 19.89M683.903 16.9225H720M720 14.0588V11.2934M720 14.0588V16.9225M720 11.2934V8.62165M685.732 8.62165H720M685.732 8.62165L685.947 7.64281L686.019 7.31907L686.3 6.03835M720 16.9225V19.89M754.269 8.62165L754.054 7.64281L753.982 7.31907L753.911 6.99674L753.84 6.67586L753.77 6.35639L753.7 6.03835M754.269 8.62165H720M720 8.62165V6.03835M646.499 19.89H683.25M646.499 19.89H609.749M682.572 22.9667L682.485 23.3589L682.399 23.7535L681.869 26.159M682.572 22.9667L683.25 19.89M682.572 22.9667H720M683.25 19.89H720M609.749 19.89H572.998M609.749 19.89L610.245 19.1379L610.492 18.7647L610.737 18.393L610.983 18.0226L611.225 17.6542L611.468 17.2877L611.709 16.9225M720 19.89V22.9667M611.709 16.9225H575.612M681.869 26.159L681.139 29.4735M681.869 26.159H720M720 22.9667V26.159M720 26.159V29.4735M642.277 29.4735L640.76 32.9177M642.277 29.4735H681.139M642.277 29.4735H603.416M681.139 29.4735L680.38 32.9177M681.139 29.4735H720M720 29.4735V32.9177M640.76 32.9177H680.38M640.76 32.9177H601.14M679.592 36.4989L680.38 32.9177M679.592 36.4989L678.771 40.2255M679.592 36.4989H720M680.38 32.9177H720M601.14 32.9177H561.52M601.14 32.9177L603.416 29.4735M720 32.9177V36.4989M603.416 29.4735H564.555M678.771 40.2255L678.454 41.6622L678.133 43.1212L677.915 44.1067M678.771 40.2255H720M720 36.4989V40.2255M720 40.2255V44.1067M635.832 44.1067L634.949 46.1081L634.727 46.6153L634.049 48.1523M635.832 44.1067H677.915M635.832 44.1067H593.747M677.915 44.1067L677.697 45.1021L677.251 47.125L677.025 48.1523M677.915 44.1067H720M720 44.1067V48.1523M634.049 48.1523H677.025M634.049 48.1523H591.074M676.095 52.3729L676.213 51.8352L677.025 48.1523M676.095 52.3729L675.125 56.7798M676.095 52.3729H720M677.025 48.1523H720M591.074 48.1523H548.099M591.074 48.1523L593.747 44.1067M720 48.1523V52.3729M593.747 44.1067H551.662M675.125 56.7798L674.11 61.3864M675.125 56.7798H720M720 52.3729V56.7798M720 56.7798V61.3864M628.219 61.3864L626.097 66.2059M628.219 61.3864H674.11M628.219 61.3864H582.329M674.11 61.3864L673.048 66.2059M674.11 61.3864H720M720 61.3864V66.2059M626.097 66.2059H673.048M626.097 66.2059H579.145M671.937 71.2537L673.048 66.2059M671.937 71.2537L670.771 76.5463M671.937 71.2537H720M673.048 66.2059H720M579.145 66.2059H532.193M579.145 66.2059L582.329 61.3864M720 66.2059V71.2537M582.329 61.3864H536.439M670.771 76.5463L669.547 82.1022M670.771 76.5463H720M720 71.2537V76.5463M720 76.5463V82.1022M619.094 82.1022L616.522 87.9411M619.094 82.1022H669.547M619.094 82.1022H568.642M669.547 82.1022L668.261 87.9411M669.547 82.1022H720M720 82.1022V87.9411M616.522 87.9411H668.261M616.522 87.9411H564.783M666.908 94.0856L668.261 87.9411M666.908 94.0856L665.482 100.56M666.908 94.0856H720M668.261 87.9411H720M564.783 87.9411H513.044M564.783 87.9411L568.642 82.1022M720 87.9411V94.0856M568.642 82.1022H518.188M665.482 100.56L663.977 107.392M665.482 100.56H720M720 94.0856V100.56M720 100.56V107.392M607.954 107.392L604.774 114.612M607.954 107.392H663.977M607.954 107.392H551.931M663.977 107.392L662.387 114.612M663.977 107.392H720M720 107.392V114.612M604.774 114.612H662.387M604.774 114.612H547.16M660.704 122.254L662.387 114.612M660.704 122.254L658.919 130.355M660.704 122.254H720M662.387 114.612H720M547.16 114.612H489.547M547.16 114.612L551.931 107.392M720 114.612V122.254M551.931 107.392H495.907M658.919 130.355L657.024 138.96M658.919 130.355H720M720 122.254V130.355M720 130.355V138.96M594.048 138.96L590.016 148.115M594.048 138.96H657.024M594.048 138.96H531.073M657.024 138.96L655.008 148.115M657.024 138.96H720M720 138.96V148.115M590.016 148.115H655.008M590.016 148.115H525.023M652.858 157.876L655.008 148.115M652.858 157.876L650.561 168.304M652.858 157.876H720M655.008 148.115H720M525.023 148.115H460.031M525.023 148.115L531.073 138.96M720 148.115V157.876M531.073 138.96H468.097M650.561 168.304L648.101 179.472M650.561 168.304H720M720 157.876V168.304M720 168.304V179.472M576.203 179.472L570.922 191.46M576.203 179.472H648.101M576.203 179.472H504.304M648.101 179.472L645.461 191.46M648.101 179.472H720M720 179.472V191.46M570.922 191.46H645.461M570.922 191.46H496.383M642.619 204.362L645.461 191.46M642.619 204.362L639.553 218.287M642.619 204.362H720M645.461 191.46H720M496.383 191.46H421.844M496.383 191.46L504.304 179.472M720 191.46V204.362M504.304 179.472H432.405M639.553 218.287L636.232 233.361M639.553 218.287H720M720 204.362V218.287M720 218.287V233.361M552.465 233.361L545.253 249.732M552.465 233.361H636.232M552.465 233.361H468.696M636.232 233.361L632.626 249.732M636.232 233.361H720M720 233.361V249.732M545.253 249.732H632.626M545.253 249.732H457.879M628.696 267.577L632.626 249.732M628.696 267.577L624.396 287.102M628.696 267.577H720M632.626 249.732H720M457.879 249.732H370.505M457.879 249.732L468.696 233.361M720 249.732V267.577M468.696 233.361H384.929M624.396 287.102L619.67 308.558M624.396 287.102H720M720 267.577V287.102M720 287.102V308.558M519.34 308.558L508.905 332.246M519.34 308.558H619.67M519.34 308.558H419.009M619.67 308.558L614.452 332.246M619.67 308.558H720M720 308.558V332.246M614.452 332.246H508.905M614.452 332.246H720M508.905 332.246H403.358M403.358 332.246H297.81M403.358 332.246L419.009 308.558M419.009 308.558H318.679M503.418 16.9225L501.475 18.393L499.497 19.89M503.418 16.9225H539.515M503.418 16.9225H467.322M542.669 14.0588L545.714 11.2934M542.669 14.0588L539.515 16.9225M542.669 14.0588H578.135M545.714 11.2934H580.571M545.714 11.2934L547.93 9.28102L548.657 8.62165M514.388 8.62165H548.657M514.388 8.62165L515.682 7.64281L517.802 6.03835M514.388 8.62165H480.119M539.515 16.9225L536.248 19.89M539.515 16.9225H575.612M578.135 14.0588L580.571 11.2934M578.135 14.0588L575.612 16.9225M580.571 11.2934L581.759 9.94611L582.636 8.95063L582.925 8.62165M548.657 8.62165H582.925M548.657 8.62165L550.799 6.67586L551.501 6.03835M575.612 16.9225L573.66 19.1379L572.998 19.89M617.194 8.62165L617.41 8.29362L617.841 7.64281L618.479 6.67586L618.901 6.03835M617.194 8.62165H582.925M582.925 8.62165L583.214 8.29362L583.788 7.64281L585.201 6.03835M499.497 19.89H536.248M499.497 19.89H462.746M532.859 22.9667L533.29 22.576L533.718 22.1866L535.412 20.6482L536.248 19.89M532.859 22.9667L530.235 25.3494L529.343 26.159M532.859 22.9667H570.288M536.248 19.89H572.998M462.746 19.89H425.996M462.746 19.89L466.193 17.6542L467.322 16.9225M572.998 19.89L570.288 22.9667M467.322 16.9225H431.224M529.343 26.159L528.895 26.5664L528.444 26.9758L527.079 28.2161L526.618 28.633L525.693 29.4735M529.343 26.159H567.474M570.288 22.9667L569.941 23.3589L567.474 26.159M567.474 26.159L567.116 26.5664L566.755 26.9758L566.393 27.3874L564.555 29.4735M486.832 29.4735L482.281 32.9177M486.832 29.4735H525.693M486.832 29.4735H447.971M525.693 29.4735L521.9 32.9177M525.693 29.4735H564.555M564.555 29.4735L561.52 32.9177M482.281 32.9177H521.9M482.281 32.9177H442.661M517.957 36.4989L521.9 32.9177M517.957 36.4989L513.853 40.2255M517.957 36.4989H558.365M521.9 32.9177H561.52M442.661 32.9177H403.041M442.661 32.9177L447.971 29.4735M561.52 32.9177L558.365 36.4989M447.971 29.4735H409.109M513.853 40.2255L509.579 44.1067M513.853 40.2255H555.082M558.365 36.4989L557.557 37.4164L555.082 40.2255M555.082 40.2255L553.816 41.6622L552.53 43.1212L551.662 44.1067M467.494 44.1067L464.849 46.1081L462.148 48.1523M467.494 44.1067H509.579M467.494 44.1067H425.409M509.579 44.1067L505.123 48.1523M509.579 44.1067H551.662M551.662 44.1067L548.099 48.1523M462.148 48.1523H505.123M462.148 48.1523H419.173M500.476 52.3729L505.123 48.1523M500.476 52.3729L495.622 56.7798M500.476 52.3729H544.38M505.123 48.1523H548.099M419.173 48.1523H376.197M419.173 48.1523L425.409 44.1067M548.099 48.1523L544.38 52.3729M425.409 44.1067H383.326M495.622 56.7798L494.375 57.9122L490.549 61.3864M495.622 56.7798H540.497M544.38 52.3729L540.497 56.7798M540.497 56.7798L540 57.3446L538.491 59.0574L536.439 61.3864M444.659 61.3864L438.29 66.2059M444.659 61.3864H490.549M444.659 61.3864H398.769M490.549 61.3864L485.241 66.2059M490.549 61.3864H536.439M536.439 61.3864L532.193 66.2059M438.29 66.2059H485.241M438.29 66.2059H391.338M479.682 71.2537L483.188 68.0714L485.241 66.2059M479.682 71.2537L473.854 76.5463M479.682 71.2537H527.746M485.241 66.2059H532.193M391.338 66.2059H344.386M391.338 66.2059L398.769 61.3864M532.193 66.2059L527.746 71.2537M398.769 61.3864H352.878M473.854 76.5463L467.735 82.1022M473.854 76.5463H523.083M527.746 71.2537L523.083 76.5463M523.083 76.5463L518.188 82.1022M417.282 82.1022L409.566 87.9411M417.282 82.1022H467.735M417.282 82.1022H366.83M467.735 82.1022L461.305 87.9411M467.735 82.1022H518.188M518.188 82.1022L513.044 87.9411M409.566 87.9411H461.305M409.566 87.9411H357.827M454.539 94.0856L461.305 87.9411M454.539 94.0856L447.409 100.56M454.539 94.0856H507.631M461.305 87.9411H513.044M357.827 87.9411H306.089M357.827 87.9411L366.83 82.1022M513.044 87.9411L507.631 94.0856M366.83 82.1022H316.377M447.409 100.56L439.885 107.392M447.409 100.56H501.927M507.631 94.0856L501.927 100.56M501.927 100.56L495.907 107.392M383.862 107.392L374.321 114.612M383.862 107.392H439.885M383.862 107.392H327.838M439.885 107.392L431.934 114.612M439.885 107.392H495.907M495.907 107.392L489.547 114.612M374.321 114.612H431.934M374.321 114.612H316.707M423.518 122.254L431.934 114.612M423.518 122.254L414.597 130.355M423.518 122.254H482.815M431.934 114.612H489.547M316.707 114.612H259.094M316.707 114.612L327.838 107.392M489.547 114.612L482.815 122.254M327.838 107.392H271.816M414.597 130.355L405.121 138.96M414.597 130.355H475.677M482.815 122.254L475.677 130.355M475.677 130.355L468.097 138.96M342.145 138.96L330.047 148.115M342.145 138.96H405.121M342.145 138.96H279.169M405.121 138.96L395.039 148.115M405.121 138.96H468.097M468.097 138.96L460.031 148.115M330.047 148.115H395.039M330.047 148.115H265.054M384.29 157.876L395.039 148.115M384.29 157.876L372.804 168.304M384.29 157.876H451.432M395.039 148.115H460.031M265.054 148.115H200.062M265.054 148.115L279.169 138.96M460.031 148.115L451.432 157.876M279.169 138.96H216.193M372.804 168.304L360.506 179.472M372.804 168.304H442.244M451.432 157.876L442.244 168.304M442.244 168.304L432.405 179.472M288.607 179.472L272.765 191.46M288.607 179.472H360.506M288.607 179.472H216.708M360.506 179.472L347.304 191.46M360.506 179.472H432.405M432.405 179.472L421.844 191.46M272.765 191.46H347.304M272.765 191.46H198.226M333.096 204.362L347.304 191.46M333.096 204.362L317.761 218.287M333.096 204.362H410.477M347.304 191.46H421.844M198.226 191.46H123.687M198.226 191.46L216.708 179.472M421.844 191.46L410.477 204.362M216.708 179.472H144.809M317.761 218.287L301.161 233.361M317.761 218.287H398.209M410.477 204.362L398.209 218.287M398.209 218.287L384.929 233.361M217.393 233.361L195.758 249.732M217.393 233.361H301.161M217.393 233.361H133.625M301.161 233.361L283.132 249.732M301.161 233.361H384.929M384.929 233.361L370.505 249.732M195.758 249.732H283.132M195.758 249.732H108.384M263.48 267.577L283.132 249.732M263.48 267.577L241.977 287.102M263.48 267.577H354.784M283.132 249.732H370.505M108.384 249.732H21.0104M108.384 249.732L133.625 233.361M370.505 249.732L354.784 267.577M133.625 233.361H49.8579M241.977 287.102L218.349 308.558M241.977 287.102H337.582M354.784 267.577L337.582 287.102M337.582 287.102L318.679 308.558M118.019 308.558L86.7156 332.246M118.019 308.558H218.349M118.019 308.558H17.6882M218.349 308.558L192.263 332.246M218.349 308.558H318.679M318.679 308.558L297.81 332.246M192.263 332.246H86.7156M192.263 332.246H297.81M86.7156 332.246L0.387546 332.245M17.6882 308.558L0.387546 319.78M17.6882 308.558H0.387546M359.03 16.9225L352.495 19.89M359.03 16.9225H395.127M359.03 16.9225H322.934M400.804 14.0588L406.286 11.2934M400.804 14.0588L395.127 16.9225M400.804 14.0588H436.27M406.286 11.2934H441.143M406.286 11.2934L411.582 8.62165M377.313 8.62165H411.582M377.313 8.62165L379.47 7.64281L383.003 6.03835M377.313 8.62165H343.045M395.127 16.9225L389.245 19.89M395.127 16.9225H431.224M436.27 14.0588L441.143 11.2934M436.27 14.0588L431.224 16.9225M441.143 11.2934L444.689 9.28102L445.851 8.62165M411.582 8.62165L412.232 8.29362L416.703 6.03835M411.582 8.62165H445.851M431.224 16.9225L425.996 19.89M480.119 8.62165L484.102 6.03835M480.119 8.62165H445.851M445.851 8.62165L447.576 7.64281L450.403 6.03835M352.495 19.89H389.245M352.495 19.89H315.744M383.146 22.9667L389.245 19.89M383.146 22.9667L376.818 26.159M383.146 22.9667H420.575M389.245 19.89H425.996M315.744 19.89H278.994M315.744 19.89L322.934 16.9225M425.996 19.89L420.575 22.9667M322.934 16.9225H286.837M376.818 26.159L375.198 26.9758L370.247 29.4735M376.818 26.159H414.95M420.575 22.9667L414.95 26.159M414.95 26.159L409.109 29.4735M331.386 29.4735L330.454 29.8971L323.801 32.9177M331.386 29.4735H370.247M331.386 29.4735H292.525M370.247 29.4735L363.421 32.9177M370.247 29.4735H409.109M409.109 29.4735L408.364 29.8971L403.041 32.9177M323.801 32.9177H363.421M323.801 32.9177H284.181M356.322 36.4989L363.421 32.9177M356.322 36.4989L348.935 40.2255M356.322 36.4989H396.731M363.421 32.9177H403.041M284.181 32.9177H244.561M284.181 32.9177L292.525 29.4735M403.041 32.9177L396.731 36.4989M292.525 29.4735H253.663M348.935 40.2255L341.241 44.1067M348.935 40.2255H390.164M396.731 36.4989L390.164 40.2255M390.164 40.2255L383.326 44.1067M299.157 44.1067L290.247 48.1523M299.157 44.1067H341.241M299.157 44.1067H257.073M341.241 44.1067L333.222 48.1523M341.241 44.1067H383.326M383.326 44.1067L376.197 48.1523M290.247 48.1523H333.222M290.247 48.1523H247.271M324.856 52.3729L333.222 48.1523M324.856 52.3729L316.119 56.7798M324.856 52.3729H368.76M333.222 48.1523H376.197M247.271 48.1523H204.296M247.271 48.1523L257.073 44.1067M376.197 48.1523L368.76 52.3729M257.073 44.1067H214.988M316.119 56.7798L306.988 61.3864M316.119 56.7798H360.995M368.76 52.3729L360.995 56.7798M360.995 56.7798L352.878 61.3864M261.098 61.3864L250.483 66.2059M261.098 61.3864H306.988M261.098 61.3864H215.208M306.988 61.3864L297.435 66.2059M306.988 61.3864H352.878M352.878 61.3864L344.386 66.2059M250.483 66.2059H297.435M250.483 66.2059H203.531M287.428 71.2537L297.435 66.2059M287.428 71.2537L276.937 76.5463M287.428 71.2537H335.492M297.435 66.2059H344.386M203.531 66.2059H156.579M203.531 66.2059L215.208 61.3864M344.386 66.2059L335.492 71.2537M215.208 61.3864H169.317M276.937 76.5463L265.924 82.1022M276.937 76.5463H326.166M335.492 71.2537L326.166 76.5463M326.166 76.5463L316.377 82.1022M215.471 82.1022L202.611 87.9411M215.471 82.1022H265.924M215.471 82.1022H165.018M265.924 82.1022L254.349 87.9411M265.924 82.1022H316.377M316.377 82.1022L306.089 87.9411M202.611 87.9411H254.349M202.611 87.9411H150.871M242.169 94.0856L254.349 87.9411M242.169 94.0856L229.335 100.56M242.169 94.0856H295.262M254.349 87.9411H306.089M150.871 87.9411H99.1326M150.871 87.9411L165.018 82.1022M306.089 87.9411L295.262 94.0856M165.018 82.1022H114.565M229.335 100.56L215.792 107.392M229.335 100.56H283.853M295.262 94.0856L283.853 100.56M283.853 100.56L271.816 107.392M159.769 107.392L143.868 114.612M159.769 107.392H215.792M159.769 107.392H103.746M215.792 107.392L201.481 114.612M215.792 107.392H271.816M271.816 107.392L259.094 114.612M143.868 114.612H201.481M143.868 114.612H86.2546M186.333 122.254L201.481 114.612M186.333 122.254L170.274 130.355M186.333 122.254H245.629M201.481 114.612H259.094M86.2546 114.612H28.6413M86.2546 114.612L103.746 107.392M259.094 114.612L245.629 122.254M103.746 107.392H47.7231M170.274 130.355L153.217 138.96M170.274 130.355H231.355M245.629 122.254L231.355 130.355M231.355 130.355L216.193 138.96M90.2417 138.96L70.0775 148.115M90.2417 138.96H153.217M90.2417 138.96H27.2658M153.217 138.96L135.07 148.115M153.217 138.96H216.193M216.193 138.96L200.062 148.115M70.0775 148.115H135.07M70.0775 148.115H5.08526M115.72 157.876L135.07 148.115M115.72 157.876L95.0481 168.304M115.72 157.876H182.863M135.07 148.115H200.062M5.08526 148.115L27.2658 138.96M5.08526 148.115H0.387546M5.08526 148.115L0.387546 150.054M200.062 148.115L182.863 157.876M27.2658 138.96H0.387546M95.0481 168.304L72.911 179.472M95.0481 168.304H164.487M182.863 157.876L164.487 168.304M164.487 168.304L144.809 179.472M1.01196 179.472H72.911M1.01196 179.472H0.387546M1.01196 179.472L0.387546 179.756M72.911 179.472L49.1473 191.46M72.911 179.472H144.809M144.809 179.472L123.687 191.46M23.5726 204.362L49.1473 191.46M23.5726 204.362H100.953M23.5726 204.362H0.387546M23.5726 204.362L0.387546 216.058M49.1473 191.46H123.687M49.1473 191.46H0.387546M123.687 191.46L100.953 204.362M100.953 204.362L76.4183 218.287M76.4183 218.287L49.8579 233.361M76.4183 218.287H0.387546M49.8579 233.361L21.0104 249.732M49.8579 233.361H0.387546M21.0104 249.732H0.387546M21.0104 249.732L0.387546 261.437M214.642 16.9225L205.493 19.89M214.642 16.9225H250.74M214.642 16.9225H178.546M258.939 14.0588L266.857 11.2934M258.939 14.0588L250.74 16.9225M258.939 14.0588H294.405M266.857 11.2934H301.714M266.857 11.2934L274.507 8.62165M240.239 8.62165H274.507M240.239 8.62165L248.204 6.03835M240.239 8.62165H205.97M250.74 16.9225L242.243 19.89M250.74 16.9225H286.837M294.405 14.0588L301.714 11.2934M294.405 14.0588L286.837 16.9225M301.714 11.2934L308.776 8.62165M274.507 8.62165L275.445 8.29362L281.904 6.03835M274.507 8.62165H308.776M286.837 16.9225L278.994 19.89M343.045 8.62165L349.303 6.03835M343.045 8.62165H308.776M308.776 8.62165L309.642 8.29362L315.603 6.03835M205.493 19.89H242.243M205.493 19.89H168.742M233.433 22.9667L242.243 19.89M233.433 22.9667L224.293 26.159M233.433 22.9667H270.862M242.243 19.89H278.994M168.742 19.89H131.992M168.742 19.89L178.546 16.9225M278.994 19.89L270.862 22.9667M178.546 16.9225H142.449M224.293 26.159L214.802 29.4735M224.293 26.159H262.424M270.862 22.9667L269.824 23.3589L262.424 26.159M262.424 26.159L253.663 29.4735M175.941 29.4735L165.321 32.9177M175.941 29.4735H214.802M175.941 29.4735H137.079M214.802 29.4735L204.941 32.9177M214.802 29.4735H253.663M253.663 29.4735L244.561 32.9177M165.321 32.9177H204.941M165.321 32.9177H125.701M194.687 36.4989L204.941 32.9177M194.687 36.4989L184.017 40.2255M194.687 36.4989H235.096M204.941 32.9177H244.561M125.701 32.9177H86.0814M125.701 32.9177L137.079 29.4735M244.561 32.9177L235.096 36.4989M137.079 29.4735H98.2181M184.017 40.2255L172.904 44.1067M184.017 40.2255H225.246M235.096 36.4989L225.246 40.2255M225.246 40.2255L214.988 44.1067M130.82 44.1067L118.345 48.1523M130.82 44.1067H172.904M130.82 44.1067H88.735M172.904 44.1067L161.321 48.1523M172.904 44.1067H214.988M214.988 44.1067L204.296 48.1523M118.345 48.1523H161.321M118.345 48.1523H75.3697M149.236 52.3729L161.321 48.1523M149.236 52.3729L136.617 56.7798M149.236 52.3729H193.141M161.321 48.1523H204.296M75.3697 48.1523H32.3946M75.3697 48.1523L88.735 44.1067M204.296 48.1523L193.141 52.3729M88.735 44.1067H46.6511M136.617 56.7798L123.427 61.3864M136.617 56.7798H181.492M193.141 52.3729L181.492 56.7798M181.492 56.7798L169.317 61.3864M77.5368 61.3864L62.676 66.2059M77.5368 61.3864H123.427M77.5368 61.3864H31.6472M123.427 61.3864L109.628 66.2059M123.427 61.3864H169.317M169.317 61.3864L156.579 66.2059M62.676 66.2059H109.628M95.174 71.2537L109.628 66.2059M95.174 71.2537L80.0202 76.5463M95.174 71.2537H143.238M109.628 66.2059H156.579M156.579 66.2059L143.238 71.2537M31.6472 61.3864H0.387546M80.0202 76.5463L64.1122 82.1022M80.0202 76.5463H129.249M143.238 71.2537L129.249 76.5463M129.249 76.5463L114.565 82.1022M13.6591 82.1022H64.1122M13.6591 82.1022H0.387546M13.6591 82.1022L0.387546 86.4062M64.1122 82.1022L47.3932 87.9411M64.1122 82.1022H114.565M114.565 82.1022L99.1326 87.9411M29.8002 94.0856L47.3932 87.9411M29.8002 94.0856L11.2619 100.56M29.8002 94.0856H82.8926M29.8002 94.0856H0.387546M47.3932 87.9411H99.1326M47.3932 87.9411H0.387546M99.1326 87.9411L82.8926 94.0856M0.241375 86.4536L0.387546 86.4062M11.2619 100.56H65.7801M11.2619 100.56H0.387546M11.2619 100.56L0.387546 104.358M82.8926 94.0856L65.7801 100.56M65.7801 100.56L47.7231 107.392M47.7231 107.392L28.6413 114.612M47.7231 107.392H0.387546M8.44421 122.254L28.6413 114.612M8.44421 122.254H0.387546M8.44421 122.254L0.387546 125.302M28.6413 114.612H0.387546M70.2552 16.9225L58.491 19.89M70.2552 16.9225H106.352M70.2552 16.9225H34.1576M117.074 14.0588L127.428 11.2934M117.074 14.0588L106.352 16.9225M117.074 14.0588H152.541M127.428 11.2934H162.285M127.428 11.2934L137.433 8.62165M103.164 8.62165H137.433M103.164 8.62165L113.405 6.03835M103.164 8.62165H68.8954M106.352 16.9225L95.2415 19.89M106.352 16.9225H142.449M152.541 14.0588L162.285 11.2934M152.541 14.0588L142.449 16.9225M162.285 11.2934L171.701 8.62165M137.433 8.62165H171.701M137.433 8.62165L147.105 6.03835M142.449 16.9225L131.992 19.89M205.97 8.62165L214.504 6.03835M205.97 8.62165H171.701M171.701 8.62165L180.805 6.03835M58.491 19.89H95.2415M58.491 19.89H21.7405M83.7209 22.9667L95.2415 19.89M83.7209 22.9667L71.7679 26.159M83.7209 22.9667H121.149M95.2415 19.89H131.992M21.7405 19.89L34.1576 16.9225M21.7405 19.89H0.387546M131.992 19.89L121.149 22.9667M34.1576 16.9225H0.387546M71.7679 26.159L59.3568 29.4735M71.7679 26.159H109.899M121.149 22.9667L109.899 26.159M109.899 26.159L98.2181 29.4735M20.4955 29.4735L6.84157 32.9177M20.4955 29.4735H59.3568M20.4955 29.4735H0.387546M59.3568 29.4735L46.4615 32.9177M59.3568 29.4735H98.2181M98.2181 29.4735L86.0814 32.9177M33.0527 36.4989L46.4615 32.9177M33.0527 36.4989L19.099 40.2255M33.0527 36.4989H73.4612M33.0527 36.4989H0.387546M46.4615 32.9177H6.84157M46.4615 32.9177H86.0814M6.84157 32.9177L0.387546 34.5455M6.84157 32.9177H0.387546M86.0814 32.9177L73.4612 36.4989M19.099 40.2255L4.56654 44.1067M19.099 40.2255H60.3283M19.099 40.2255H0.387546M73.4612 36.4989L60.3283 40.2255M60.3283 40.2255L46.6511 44.1067M4.56654 44.1067H46.6511M4.56654 44.1067L0.387546 45.2226M4.56654 44.1067H0.387546M46.6511 44.1067L32.3946 48.1523M17.5211 52.3729L32.3946 48.1523M17.5211 52.3729L1.99018 56.7798M17.5211 52.3729H0.387546M32.3946 48.1523H0.387546M0.162665 48.1523H0.387546M1.99018 56.7798H0.387546M1.99018 56.7798L0.387546 57.2346M0 57.3446L0.387546 57.2346M10.6758 14.0588L22.8567 11.2934M10.6758 14.0588H0.387546M10.6758 14.0588L0.387546 16.3942M22.8567 11.2934L34.6269 8.62165M22.8567 11.2934H0.387546M68.8954 8.62165L79.7053 6.03835M68.8954 8.62165H34.6269M34.6269 8.62165L46.0057 6.03835M34.6269 8.62165H0.387546M1191.8 6.03835H1225.5M1191.8 6.03835H1158.1M1217.24 3.53966L1219.28 4.15673L1225.5 6.03835M1217.24 3.53966H1250.39M1225.5 6.03835H1259.2M1250.39 3.53966L1252.56 4.15673L1253.66 4.46669L1259.2 6.03835M1259.2 6.03835H1292.89M1292.89 6.03835H1326.6M1158.1 6.03835H1124.4M1326.6 6.03835H1360.29M1360.29 6.03835L1349.84 3.53966M1360.29 6.03835H1393.99M1349.84 3.53966H1382.99M1057 6.03835H1090.7M1057 6.03835H1023.3M1084.64 3.53966L1086.14 4.15673L1086.89 4.46669L1090.7 6.03835M1084.64 3.53966H1117.79M1090.7 6.03835H1124.4M1117.79 3.53966L1124.4 6.03835M1023.3 6.03835H989.598M922.198 6.03835H955.898M922.198 6.03835H888.499M952.045 3.53966L952.52 3.84724L952.996 4.15673L953.475 4.46669L955.898 6.03835M952.045 3.53966H985.194M955.898 6.03835H989.598M985.194 3.53966L989.598 6.03835M888.499 6.03835H854.798M787.399 6.03835H821.099M787.399 6.03835H753.7M819.448 3.53966L821.099 6.03835M819.448 3.53966H852.598M821.099 6.03835H854.798M852.598 3.53966L852.869 3.84724L853.141 4.15673L853.415 4.46669L854.798 6.03835M753.7 6.03835H720M652.601 6.03835H686.3M652.601 6.03835H618.901M686.851 3.53966L686.3 6.03835M686.851 3.53966H720M686.3 6.03835H720M720 3.53966V6.03835M618.901 6.03835H585.201M517.802 6.03835H551.501M517.802 6.03835H484.102M554.253 3.53966L553.574 4.15673L552.198 5.4056L551.501 6.03835M554.253 3.53966H587.402M551.501 6.03835H585.201M587.402 3.53966L587.131 3.84724L586.859 4.15673L586.585 4.46669L585.201 6.03835M484.102 6.03835H450.403M383.003 6.03835H416.703M383.003 6.03835H349.303M421.656 3.53966L420.433 4.15673L419.817 4.46669L416.703 6.03835M421.656 3.53966H454.806M416.703 6.03835H450.403M454.806 3.53966L454.263 3.84724L450.403 6.03835M349.303 6.03835H315.603M248.204 6.03835H281.904M248.204 6.03835H214.504M289.059 3.53966L287.292 4.15673L286.403 4.46669L281.904 6.03835M289.059 3.53966H322.208M281.904 6.03835H315.603M322.208 3.53966L321.394 3.84724L315.603 6.03835M214.504 6.03835H180.805M113.405 6.03835H147.105M113.405 6.03835H79.7053M156.461 3.53966L147.105 6.03835M156.461 3.53966H189.61M147.105 6.03835H180.805M189.61 3.53966L187.437 4.15673L186.342 4.46669L180.805 6.03835M79.7053 6.03835H46.0057M23.8641 3.53966L12.3061 6.03835M23.8641 3.53966H57.0136M23.8641 3.53966H0.387546M12.3061 6.03835H46.0057M12.3061 6.03835L0.387546 8.61533M12.3061 6.03835H0.387546M57.0136 3.53966L54.2955 4.15673L46.0057 6.03835M1382.99 3.53966L1385.7 4.15673L1393.99 6.03835M1393.99 6.03835H1427.69M1427.69 6.03835L1439.61 8.61534M1427.69 6.03835H1439.61M1439.61 125.302V122.254M1439.61 125.302V130.355M1439.61 122.254V114.612M1439.61 130.355V131.865V138.96M1439.61 138.96V148.115M1439.61 66.2059V61.3864M1439.61 66.2059V70.848M1439.61 3.53966V6.03835M1439.61 6.03835V8.61534M1439.61 8.61534L1439.64 8.62165H1439.61M1439.61 8.61534V8.62165M1439.61 8.62165V11.2934M1439.61 11.2934V14.0588M1439.61 14.0588V16.3942M1439.61 16.3942V16.9225M1439.61 16.9225V19.89M1439.61 19.89V22.9667M1439.61 22.9667V24.992M1439.61 24.992V26.159M1439.61 26.159V29.4735M1439.61 29.4735V32.9177M1439.61 32.9177V34.5455M1439.61 34.5455V36.4989M1439.61 36.4989V40.2255M1439.61 40.2255V44.1067M1439.61 44.1067V45.2226M1439.61 45.2226V48.1523M1439.61 48.1523V52.3729M1439.61 52.3729V56.7798M1439.61 56.7798V57.2346M1439.61 57.2346V61.3864M1439.61 71.2537V76.5463M1439.61 71.2537V70.848M1439.61 76.5463V82.1022M1439.61 82.1022V86.4062M1439.61 86.4062V87.9411M1439.61 87.9411V94.0856M1439.61 94.0856V100.56M1439.61 100.56V104.358M1439.61 104.358V107.392M1439.61 107.392V114.612M1439.61 148.115V150.054M1439.61 150.054V157.876M1439.61 157.876V168.304M1439.61 168.304V179.472M1439.61 179.472V179.756M1439.61 179.756V191.46M1439.61 191.46V204.362M1439.61 204.362V216.058M1439.61 216.058V218.287M1439.61 218.287V233.361M1439.61 233.361V249.732M1439.61 249.732V261.437M1439.61 261.437V267.577M1439.61 267.577V287.102M1439.61 287.102V308.558M1439.61 308.558V319.78M1439.61 319.78V332.245M1439.61 332.245V332.33H0.387546V332.245M0.387546 71.2537V76.5463M0.387546 71.2537V70.848M0.387546 70.848V66.2059M0.387546 66.2059V61.3864M0.387546 61.3864V57.2346M0.387546 57.2346V56.7798M0.387546 56.7798V52.3729M0.387546 52.3729V48.1523M0.387546 48.1523V45.2226M0.387546 45.2226V44.1067M0.387546 44.1067V40.2255M0.387546 40.2255V36.4989M0.387546 36.4989V34.5455M0.387546 34.5455V32.9177M0.387546 32.9177V29.4735M0.387546 29.4735V26.159M0.387546 26.159V24.992M0.387546 24.992V22.9667M0.387546 22.9667V19.89M0.387546 19.89V16.9225M0.387546 16.9225V16.3942M0.387546 16.3942V14.0588M0.387546 14.0588V11.2934M0.387546 11.2934V8.62165M0.387546 8.62165H0.35831L0.387546 8.61533M0.387546 8.62165V8.61533M0.387546 8.61533V6.03835M0.387546 6.03835V3.53966M0.387546 332.245V319.78M0.387546 319.78V308.558M0.387546 308.558V287.103M0.387546 287.103V267.577M0.387546 267.577V261.437M0.387546 261.437V249.732M0.387546 249.732V233.361M0.387546 233.361V218.287M0.387546 218.287V216.058M0.387546 216.058V204.362M0.387546 204.362V191.46M0.387546 191.46V179.756M0.387546 179.756V179.472M0.387546 179.472V168.304M0.387546 168.304V157.876M0.387546 157.876V150.054M0.387546 150.054V148.115M0.387546 148.115V138.96M0.387546 138.96V130.355M0.387546 130.355V125.302M0.387546 125.302V122.254M0.387546 122.254V114.612M0.387546 114.612V107.392M0.387546 107.392V104.358M0.387546 104.358V100.56M0.387546 100.56V94.0856M0.387546 94.0856V87.9411M0.387546 87.9411V86.4062M0.387546 86.4062V82.1022M0.387546 82.1022V76.5463" stroke="url(#paint0_radial_170_3524)" stroke-opacity="0.6" stroke-width="0.870405" stroke-miterlimit="10" stroke-linecap="round" stroke-linejoin="round"/>
<defs>
<radialGradient id="paint0_radial_170_3524" cx="0" cy="0" r="1" gradientUnits="userSpaceOnUse" gradientTransform="translate(720 320.123) rotate(-90) scale(518.464 2254.13)">
<stop stop-color="#525252"/>
<stop offset="0.489074" stop-color="#CED2DF" stop-opacity="0"/>
</radialGradient>
</defs>
</svg>
