<svg width="44" height="44" viewBox="0 0 44 44" fill="none" xmlns="http://www.w3.org/2000/svg">
<rect width="44" height="44" rx="22" fill="white" fill-opacity="0.11"/>
<rect x="0.5" y="0.5" width="43" height="43" rx="21.5" stroke="white" stroke-opacity="0.1"/>
<path d="M22.1865 16.5273C21.2811 15.6863 20.0827 15.2328 18.8474 15.2636C17.6121 15.2944 16.4378 15.8072 15.5755 16.6922C14.7131 17.5773 14.2311 18.7645 14.2324 20.0002C14.2337 21.2359 14.7183 22.4221 15.5825 23.3053L21.4865 29.0673C21.6734 29.2505 21.9247 29.3532 22.1865 29.3532C22.4483 29.3532 22.6996 29.2505 22.8865 29.0673L28.8015 23.2973C29.681 22.4161 30.1779 21.2239 30.1846 19.9789C30.1912 18.7339 29.707 17.5364 28.8369 16.6459C27.9668 15.7555 26.7809 15.2437 25.5361 15.2215C24.2912 15.1993 23.0878 15.6684 22.1865 16.5273ZM27.3945 21.8753L22.1865 26.9543L16.9865 21.8843C16.4928 21.3677 16.221 20.6784 16.2292 19.9639C16.2375 19.2494 16.5251 18.5665 17.0306 18.0614C17.536 17.5563 18.2191 17.2692 18.9337 17.2616C19.6482 17.2539 20.3373 17.5262 20.8535 18.0203C21.0355 18.2103 21.1885 18.4243 21.3085 18.6583C21.4024 18.8062 21.5321 18.9279 21.6856 19.0123C21.839 19.0967 22.0114 19.1409 22.1865 19.1409C22.3616 19.1409 22.534 19.0967 22.6874 19.0123C22.8409 18.9279 22.9706 18.8062 23.0645 18.6583C23.3523 18.1243 23.8101 17.7016 24.3654 17.4572C24.9206 17.2129 25.5416 17.1609 26.1297 17.3095C26.7179 17.4581 27.2396 17.7988 27.6122 18.2775C27.9848 18.7562 28.1869 19.3457 28.1865 19.9523C28.1882 20.3093 28.119 20.663 27.9831 20.9931C27.8471 21.3232 27.6471 21.6231 27.3945 21.8753Z" fill="white"/>
</svg>
