<svg width="45" height="44" viewBox="0 0 45 44" fill="none" xmlns="http://www.w3.org/2000/svg">
<rect x="0.333374" width="44" height="44" rx="22" fill="white" fill-opacity="0.11"/>
<rect x="0.833374" y="0.5" width="43" height="43" rx="21.5" stroke="white" stroke-opacity="0.1"/>
<path d="M24.9999 14C26.2999 14 27.5999 14.5 28.4999 15.5C29.4999 16.4 29.9999 17.7 29.9999 19C29.9999 20.3 29.4999 21.6 28.5999 22.5L27.3999 23.7C27.1999 23.9 26.8999 24 26.6999 24C26.4999 24 26.1999 23.9 25.9999 23.7C25.5999 23.3 25.5999 22.7 25.9999 22.3L27.0999 21.1C27.6999 20.6 27.9999 19.8 27.9999 19C27.9999 18.2 27.6999 17.4 27.0999 16.8C25.9999 15.7 23.9999 15.7 22.8999 16.8L21.6999 18C21.2999 18.4 20.6999 18.4 20.2999 18C19.8999 17.6 19.8999 17 20.2999 16.6L21.4999 15.5C22.3999 14.5 23.6999 14 24.9999 14ZM22.2999 26C22.6999 25.6 23.2999 25.5 23.6999 25.9C24.0999 26.3 24.0999 26.9 23.6999 27.3L22.4999 28.5C21.5999 29.5 20.2999 30 18.9999 30C17.6999 30 16.3999 29.5 15.4999 28.5C14.4999 27.6 13.9999 26.3 13.9999 25C13.9999 23.7 14.4999 22.4 15.4999 21.5L16.5999 20.3C16.9999 19.9 17.5999 19.9 17.9999 20.3C18.3999 20.7 18.3999 21.3 17.9999 21.7L16.8999 22.9C16.2999 23.4 15.9999 24.2 15.9999 25C15.9999 25.8 16.2999 26.6 16.8999 27.2C17.9999 28.3 19.9999 28.3 21.0999 27.2L22.2999 26ZM23.3999 19.2C23.7999 18.8 24.3999 18.8 24.7999 19.2C25.1999 19.6 25.1999 20.2 24.7999 20.6L20.5999 24.8C20.3999 25 20.0999 25.1 19.8999 25.1C19.6999 25.1 19.3999 25 19.1999 24.8C18.7999 24.4 18.7999 23.8 19.1999 23.4L23.3999 19.2Z" fill="white"/>
</svg>
