<svg xmlns="http://www.w3.org/2000/svg" xmlns:xlink="http://www.w3.org/1999/xlink" width="512" zoomAndPan="magnify" viewBox="0 0 384 383.999986" height="512" preserveAspectRatio="xMidYMid meet" version="1.0"><defs><clipPath id="8129034077"><path d="M 139 70.742188 L 245 70.742188 L 245 155 L 139 155 Z M 139 70.742188 " clip-rule="nonzero"/></clipPath><clipPath id="47aa2a4ddd"><path d="M 55.367188 171 L 328.367188 171 L 328.367188 308.492188 L 55.367188 308.492188 Z M 55.367188 171 " clip-rule="nonzero"/></clipPath><clipPath id="1afe7be53f"><path d="M 139 75.175781 L 245 75.175781 L 245 159 L 139 159 Z M 139 75.175781 " clip-rule="nonzero"/></clipPath><clipPath id="4c7b985ed1"><path d="M 55.367188 176 L 328.367188 176 L 328.367188 312.925781 L 55.367188 312.925781 Z M 55.367188 176 " clip-rule="nonzero"/></clipPath></defs><path fill="#21e9b2" d="M 284.800781 145.726562 C 284.800781 146.277344 284.761719 146.832031 284.6875 147.386719 C 284.613281 147.941406 284.5 148.492188 284.351562 149.042969 C 284.203125 149.597656 284.019531 150.144531 283.796875 150.695312 C 283.574219 151.242188 283.3125 151.789062 283.015625 152.332031 C 282.71875 152.875 282.386719 153.417969 282.019531 153.953125 C 281.648438 154.492188 281.246094 155.027344 280.804688 155.554688 C 280.363281 156.085938 279.886719 156.613281 279.375 157.132812 C 278.863281 157.65625 278.316406 158.171875 277.734375 158.683594 C 277.15625 159.195312 276.539062 159.703125 275.890625 160.203125 C 275.242188 160.707031 274.558594 161.199219 273.839844 161.6875 C 273.125 162.179688 272.378906 162.660156 271.597656 163.136719 C 270.816406 163.609375 270.003906 164.078125 269.160156 164.539062 C 268.316406 165 267.441406 165.453125 266.535156 165.898438 C 265.632812 166.34375 264.699219 166.78125 263.734375 167.210938 C 262.769531 167.636719 261.777344 168.058594 260.757812 168.46875 C 259.738281 168.878906 258.691406 169.28125 257.617188 169.671875 C 256.542969 170.0625 255.445312 170.445312 254.320312 170.816406 C 253.195312 171.191406 252.042969 171.550781 250.871094 171.902344 C 249.695312 172.253906 248.5 172.597656 247.277344 172.925781 C 246.058594 173.257812 244.816406 173.574219 243.554688 173.882812 C 242.292969 174.191406 241.007812 174.488281 239.707031 174.773438 C 238.402344 175.058594 237.082031 175.332031 235.742188 175.59375 C 234.402344 175.855469 233.046875 176.101562 231.675781 176.339844 C 230.300781 176.578125 228.914062 176.800781 227.511719 177.011719 C 226.105469 177.226562 224.691406 177.425781 223.261719 177.613281 C 221.832031 177.796875 220.390625 177.972656 218.9375 178.132812 C 217.480469 178.292969 216.019531 178.441406 214.546875 178.578125 C 213.074219 178.710938 211.589844 178.832031 210.101562 178.941406 C 208.613281 179.046875 207.117188 179.144531 205.613281 179.226562 C 204.109375 179.304688 202.605469 179.375 201.09375 179.429688 C 199.582031 179.484375 198.066406 179.523438 196.550781 179.550781 C 195.03125 179.578125 193.515625 179.589844 191.996094 179.589844 C 190.476562 179.589844 188.960938 179.578125 187.441406 179.550781 C 185.925781 179.523438 184.410156 179.484375 182.898438 179.429688 C 181.386719 179.375 179.882812 179.304688 178.378906 179.226562 C 176.875 179.144531 175.378906 179.046875 173.890625 178.941406 C 172.402344 178.832031 170.921875 178.710938 169.445312 178.578125 C 167.972656 178.441406 166.511719 178.292969 165.058594 178.132812 C 163.601562 177.972656 162.160156 177.796875 160.730469 177.613281 C 159.300781 177.425781 157.886719 177.226562 156.480469 177.011719 C 155.078125 176.800781 153.691406 176.578125 152.316406 176.339844 C 150.945312 176.101562 149.589844 175.855469 148.25 175.59375 C 146.910156 175.332031 145.589844 175.058594 144.285156 174.773438 C 142.984375 174.488281 141.699219 174.191406 140.4375 173.882812 C 139.175781 173.574219 137.933594 173.257812 136.714844 172.925781 C 135.492188 172.597656 134.296875 172.253906 133.121094 171.902344 C 131.949219 171.550781 130.796875 171.191406 129.671875 170.816406 C 128.546875 170.445312 127.449219 170.0625 126.375 169.671875 C 125.300781 169.28125 124.253906 168.878906 123.234375 168.46875 C 122.214844 168.058594 121.222656 167.636719 120.257812 167.210938 C 119.292969 166.78125 118.359375 166.34375 117.457031 165.898438 C 116.550781 165.453125 115.675781 165 114.832031 164.539062 C 113.988281 164.078125 113.175781 163.609375 112.394531 163.136719 C 111.613281 162.660156 110.867188 162.179688 110.152344 161.6875 C 109.433594 161.199219 108.753906 160.707031 108.101562 160.203125 C 107.453125 159.703125 106.839844 159.195312 106.257812 158.683594 C 105.675781 158.171875 105.128906 157.65625 104.617188 157.132812 C 104.105469 156.613281 103.628906 156.085938 103.1875 155.554688 C 102.746094 155.027344 102.34375 154.492188 101.972656 153.953125 C 101.605469 153.417969 101.273438 152.875 100.976562 152.332031 C 100.679688 151.789062 100.417969 151.242188 100.195312 150.695312 C 99.972656 150.144531 99.789062 149.597656 99.640625 149.042969 C 99.492188 148.492188 99.378906 147.941406 99.304688 147.386719 C 99.230469 146.832031 99.191406 146.277344 99.191406 145.726562 C 99.191406 145.171875 99.230469 144.617188 99.304688 144.0625 C 99.378906 143.507812 99.492188 142.957031 99.640625 142.40625 C 99.789062 141.855469 99.972656 141.304688 100.195312 140.753906 C 100.417969 140.207031 100.679688 139.660156 100.976562 139.117188 C 101.273438 138.574219 101.605469 138.035156 101.972656 137.496094 C 102.34375 136.957031 102.746094 136.425781 103.1875 135.894531 C 103.628906 135.363281 104.105469 134.835938 104.617188 134.316406 C 105.128906 133.792969 105.675781 133.277344 106.257812 132.765625 C 106.839844 132.253906 107.453125 131.746094 108.101562 131.246094 C 108.753906 130.746094 109.433594 130.25 110.152344 129.761719 C 110.867188 129.273438 111.613281 128.789062 112.394531 128.3125 C 113.175781 127.839844 113.988281 127.371094 114.832031 126.910156 C 115.675781 126.449219 116.550781 125.996094 117.457031 125.550781 C 118.359375 125.105469 119.292969 124.667969 120.257812 124.242188 C 121.222656 123.8125 122.214844 123.390625 123.234375 122.980469 C 124.253906 122.570312 125.300781 122.167969 126.375 121.777344 C 127.449219 121.386719 128.546875 121.003906 129.671875 120.632812 C 130.796875 120.257812 131.949219 119.898438 133.121094 119.546875 C 134.296875 119.195312 135.492188 118.851562 136.714844 118.523438 C 137.933594 118.191406 139.175781 117.875 140.4375 117.566406 C 141.699219 117.257812 142.984375 116.960938 144.285156 116.675781 C 145.589844 116.390625 146.910156 116.117188 148.25 115.859375 C 149.589844 115.597656 150.945312 115.347656 152.316406 115.109375 C 153.691406 114.875 155.078125 114.648438 156.480469 114.4375 C 157.886719 114.222656 159.300781 114.023438 160.730469 113.839844 C 162.160156 113.652344 163.601562 113.476562 165.058594 113.316406 C 166.511719 113.15625 167.972656 113.007812 169.445312 112.875 C 170.921875 112.738281 172.402344 112.617188 173.890625 112.507812 C 175.378906 112.402344 176.875 112.304688 178.378906 112.226562 C 179.882812 112.144531 181.386719 112.074219 182.898438 112.023438 C 184.410156 111.96875 185.925781 111.925781 187.441406 111.898438 C 188.960938 111.871094 190.476562 111.859375 191.996094 111.859375 C 193.515625 111.859375 195.03125 111.871094 196.550781 111.898438 C 198.066406 111.925781 199.582031 111.96875 201.09375 112.023438 C 202.605469 112.074219 204.109375 112.144531 205.613281 112.226562 C 207.117188 112.304688 208.613281 112.402344 210.101562 112.507812 C 211.589844 112.617188 213.074219 112.738281 214.546875 112.875 C 216.019531 113.007812 217.480469 113.15625 218.9375 113.316406 C 220.390625 113.476562 221.832031 113.652344 223.261719 113.839844 C 224.691406 114.023438 226.105469 114.222656 227.511719 114.4375 C 228.914062 114.648438 230.300781 114.875 231.675781 115.109375 C 233.046875 115.347656 234.402344 115.597656 235.742188 115.859375 C 237.082031 116.117188 238.402344 116.390625 239.707031 116.675781 C 241.007812 116.960938 242.292969 117.257812 243.554688 117.566406 C 244.816406 117.875 246.058594 118.191406 247.277344 118.523438 C 248.5 118.851562 249.695312 119.195312 250.871094 119.546875 C 252.042969 119.898438 253.195312 120.257812 254.320312 120.632812 C 255.445312 121.003906 256.542969 121.386719 257.617188 121.777344 C 258.691406 122.167969 259.738281 122.570312 260.757812 122.980469 C 261.777344 123.390625 262.769531 123.8125 263.734375 124.242188 C 264.699219 124.667969 265.632812 125.105469 266.535156 125.550781 C 267.441406 125.996094 268.316406 126.449219 269.160156 126.910156 C 270.003906 127.371094 270.816406 127.839844 271.597656 128.3125 C 272.378906 128.789062 273.125 129.273438 273.839844 129.761719 C 274.558594 130.25 275.242188 130.746094 275.890625 131.246094 C 276.539062 131.746094 277.15625 132.253906 277.734375 132.765625 C 278.316406 133.277344 278.863281 133.792969 279.375 134.316406 C 279.886719 134.835938 280.363281 135.363281 280.804688 135.894531 C 281.246094 136.425781 281.648438 136.957031 282.019531 137.496094 C 282.386719 138.035156 282.71875 138.574219 283.015625 139.117188 C 283.3125 139.660156 283.574219 140.207031 283.796875 140.753906 C 284.019531 141.304688 284.203125 141.855469 284.351562 142.40625 C 284.5 142.957031 284.613281 143.507812 284.6875 144.0625 C 284.761719 144.617188 284.800781 145.171875 284.800781 145.726562 Z M 284.800781 145.726562 " fill-opacity="1" fill-rule="nonzero"/><g clip-path="url(#8129034077)"><path fill="#21e9b2" d="M 229.5 71.179688 C 230.558594 70.769531 231.742188 70.871094 232.714844 71.453125 C 233.683594 72.035156 234.332031 73.035156 234.46875 74.160156 C 236.613281 91.941406 244.132812 154.242188 244.132812 154.242188 L 139.316406 154.242188 C 139.316406 154.242188 147.246094 91.863281 149.5 74.125 C 149.640625 73.007812 150.289062 72.015625 151.261719 71.4375 C 152.230469 70.859375 153.410156 70.761719 154.464844 71.167969 C 163.773438 74.777344 185.140625 83.0625 190.667969 85.203125 C 191.523438 85.535156 192.46875 85.535156 193.320312 85.203125 C 198.84375 83.0625 220.179688 74.792969 229.5 71.179688 Z M 229.5 71.179688 " fill-opacity="1" fill-rule="evenodd"/></g><g clip-path="url(#47aa2a4ddd)"><path fill="#21e9b2" d="M 184.785156 304.972656 C 148.832031 285.664062 107.339844 272.285156 56.988281 268.390625 C 56.292969 268.339844 55.710938 267.851562 55.539062 267.175781 C 55.367188 266.503906 55.640625 265.796875 56.222656 265.417969 C 65.039062 259.664062 86.582031 245.601562 103.34375 234.660156 C 108.644531 231.203125 112.027344 225.472656 112.492188 219.160156 C 112.957031 212.851562 110.453125 206.683594 105.722656 202.484375 C 90.75 189.199219 72.789062 173.261719 72.789062 173.261719 C 97.136719 173.816406 121.578125 179.945312 146.136719 193.691406 C 159.640625 201.261719 169.785156 213.660156 174.535156 228.394531 C 179.617188 244.160156 186.332031 265.003906 189.765625 275.660156 C 190.074219 276.628906 190.980469 277.285156 191.996094 277.285156 C 193.015625 277.285156 193.917969 276.628906 194.226562 275.660156 C 197.878906 264.328125 205.242188 241.484375 210.398438 225.46875 C 214.496094 212.757812 222.894531 201.867188 234.152344 194.679688 C 258.527344 179.125 284.226562 171.65625 311.203125 171.96875 C 311.203125 171.96875 292.769531 188.78125 277.679688 202.539062 C 273.058594 206.75 270.648438 212.867188 271.152344 219.101562 C 271.65625 225.335938 275.015625 230.984375 280.25 234.402344 C 297.066406 245.378906 318.882812 259.617188 327.769531 265.417969 C 328.351562 265.796875 328.625 266.503906 328.453125 267.175781 C 328.28125 267.851562 327.699219 268.339844 327.003906 268.390625 C 276.652344 272.285156 235.160156 285.664062 199.207031 304.972656 C 197.050781 306.132812 194.914062 307.3125 192.796875 308.515625 C 192.300781 308.796875 191.691406 308.796875 191.195312 308.515625 C 189.078125 307.3125 186.941406 306.132812 184.785156 304.972656 Z M 184.785156 304.972656 " fill-opacity="1" fill-rule="evenodd"/></g><path fill="#ba46f3" d="M 284.800781 150.160156 C 284.800781 150.714844 284.761719 151.269531 284.6875 151.820312 C 284.613281 152.375 284.5 152.929688 284.351562 153.480469 C 284.203125 154.03125 284.019531 154.582031 283.796875 155.128906 C 283.574219 155.675781 283.3125 156.222656 283.015625 156.765625 C 282.71875 157.3125 282.386719 157.851562 282.019531 158.390625 C 281.648438 158.925781 281.246094 159.460938 280.804688 159.992188 C 280.363281 160.519531 279.886719 161.046875 279.375 161.570312 C 278.863281 162.089844 278.316406 162.609375 277.734375 163.121094 C 277.15625 163.632812 276.539062 164.140625 275.890625 164.640625 C 275.242188 165.140625 274.558594 165.636719 273.839844 166.125 C 273.125 166.613281 272.378906 167.09375 271.597656 167.570312 C 270.816406 168.046875 270.003906 168.515625 269.160156 168.976562 C 268.316406 169.4375 267.441406 169.890625 266.535156 170.335938 C 265.632812 170.78125 264.699219 171.214844 263.734375 171.644531 C 262.769531 172.074219 261.777344 172.492188 260.757812 172.902344 C 259.738281 173.3125 258.691406 173.714844 257.617188 174.105469 C 256.542969 174.5 255.445312 174.882812 254.320312 175.253906 C 253.195312 175.625 252.042969 175.988281 250.871094 176.339844 C 249.695312 176.691406 248.5 177.03125 247.277344 177.363281 C 246.058594 177.691406 244.816406 178.011719 243.554688 178.320312 C 242.292969 178.625 241.007812 178.921875 239.707031 179.207031 C 238.402344 179.492188 237.082031 179.765625 235.742188 180.027344 C 234.402344 180.289062 233.046875 180.539062 231.675781 180.773438 C 230.300781 181.011719 228.914062 181.238281 227.511719 181.449219 C 226.105469 181.660156 224.691406 181.859375 223.261719 182.046875 C 221.832031 182.234375 220.390625 182.40625 218.9375 182.566406 C 217.480469 182.730469 216.019531 182.875 214.546875 183.011719 C 213.074219 183.144531 211.589844 183.265625 210.101562 183.375 C 208.613281 183.484375 207.117188 183.578125 205.613281 183.660156 C 204.109375 183.742188 202.605469 183.808594 201.09375 183.863281 C 199.582031 183.917969 198.066406 183.957031 196.550781 183.984375 C 195.03125 184.011719 193.515625 184.027344 191.996094 184.027344 C 190.476562 184.027344 188.960938 184.011719 187.441406 183.984375 C 185.925781 183.957031 184.410156 183.917969 182.898438 183.863281 C 181.386719 183.808594 179.882812 183.742188 178.378906 183.660156 C 176.875 183.578125 175.378906 183.484375 173.890625 183.375 C 172.402344 183.265625 170.921875 183.144531 169.445312 183.011719 C 167.972656 182.875 166.511719 182.730469 165.058594 182.566406 C 163.601562 182.40625 162.160156 182.234375 160.730469 182.046875 C 159.300781 181.859375 157.886719 181.660156 156.480469 181.449219 C 155.078125 181.238281 153.691406 181.011719 152.316406 180.773438 C 150.945312 180.539062 149.589844 180.289062 148.25 180.027344 C 146.910156 179.765625 145.589844 179.492188 144.285156 179.207031 C 142.984375 178.921875 141.699219 178.625 140.4375 178.320312 C 139.175781 178.011719 137.933594 177.691406 136.714844 177.363281 C 135.492188 177.03125 134.296875 176.691406 133.121094 176.339844 C 131.949219 175.988281 130.796875 175.625 129.671875 175.253906 C 128.546875 174.882812 127.449219 174.5 126.375 174.105469 C 125.300781 173.714844 124.253906 173.3125 123.234375 172.902344 C 122.214844 172.492188 121.222656 172.074219 120.257812 171.644531 C 119.292969 171.214844 118.359375 170.78125 117.457031 170.335938 C 116.550781 169.890625 115.675781 169.4375 114.832031 168.976562 C 113.988281 168.515625 113.175781 168.046875 112.394531 167.570312 C 111.613281 167.09375 110.867188 166.613281 110.152344 166.125 C 109.433594 165.636719 108.753906 165.140625 108.101562 164.640625 C 107.453125 164.140625 106.839844 163.632812 106.257812 163.121094 C 105.675781 162.609375 105.128906 162.089844 104.617188 161.570312 C 104.105469 161.046875 103.628906 160.519531 103.1875 159.992188 C 102.746094 159.460938 102.34375 158.925781 101.972656 158.390625 C 101.605469 157.851562 101.273438 157.3125 100.976562 156.765625 C 100.679688 156.222656 100.417969 155.675781 100.195312 155.128906 C 99.972656 154.582031 99.789062 154.03125 99.640625 153.480469 C 99.492188 152.929688 99.378906 152.375 99.304688 151.820312 C 99.230469 151.269531 99.191406 150.714844 99.191406 150.160156 C 99.191406 149.605469 99.230469 149.050781 99.304688 148.5 C 99.378906 147.945312 99.492188 147.390625 99.640625 146.839844 C 99.789062 146.289062 99.972656 145.738281 100.195312 145.191406 C 100.417969 144.644531 100.679688 144.097656 100.976562 143.554688 C 101.273438 143.007812 101.605469 142.46875 101.972656 141.929688 C 102.34375 141.394531 102.746094 140.859375 103.1875 140.328125 C 103.628906 139.800781 104.105469 139.273438 104.617188 138.75 C 105.128906 138.230469 105.675781 137.710938 106.257812 137.199219 C 106.839844 136.6875 107.453125 136.179688 108.101562 135.679688 C 108.753906 135.179688 109.433594 134.683594 110.152344 134.195312 C 110.867188 133.707031 111.613281 133.226562 112.394531 132.75 C 113.175781 132.273438 113.988281 131.804688 114.832031 131.34375 C 115.675781 130.882812 116.550781 130.429688 117.457031 129.984375 C 118.359375 129.539062 119.292969 129.105469 120.257812 128.675781 C 121.222656 128.246094 122.214844 127.828125 123.234375 127.417969 C 124.253906 127.007812 125.300781 126.605469 126.375 126.214844 C 127.449219 125.820312 128.546875 125.4375 129.671875 125.066406 C 130.796875 124.695312 131.949219 124.332031 133.121094 123.980469 C 134.296875 123.628906 135.492188 123.289062 136.714844 122.957031 C 137.933594 122.628906 139.175781 122.308594 140.4375 122 C 141.699219 121.691406 142.984375 121.398438 144.285156 121.113281 C 145.589844 120.828125 146.910156 120.554688 148.25 120.292969 C 149.589844 120.03125 150.945312 119.78125 152.316406 119.546875 C 153.691406 119.308594 155.078125 119.082031 156.480469 118.871094 C 157.886719 118.660156 159.300781 118.460938 160.730469 118.273438 C 162.160156 118.085938 163.601562 117.914062 165.058594 117.753906 C 166.511719 117.589844 167.972656 117.445312 169.445312 117.308594 C 170.921875 117.175781 172.402344 117.050781 173.890625 116.945312 C 175.378906 116.835938 176.875 116.742188 178.378906 116.660156 C 179.882812 116.578125 181.386719 116.511719 182.898438 116.457031 C 184.410156 116.402344 185.925781 116.363281 187.441406 116.335938 C 188.960938 116.308594 190.476562 116.292969 191.996094 116.292969 C 193.515625 116.292969 195.03125 116.308594 196.550781 116.335938 C 198.066406 116.363281 199.582031 116.402344 201.09375 116.457031 C 202.605469 116.511719 204.109375 116.578125 205.613281 116.660156 C 207.117188 116.742188 208.613281 116.835938 210.101562 116.945312 C 211.589844 117.050781 213.074219 117.175781 214.546875 117.308594 C 216.019531 117.445312 217.480469 117.589844 218.9375 117.753906 C 220.390625 117.914062 221.832031 118.085938 223.261719 118.273438 C 224.691406 118.460938 226.105469 118.660156 227.511719 118.871094 C 228.914062 119.082031 230.300781 119.308594 231.675781 119.546875 C 233.046875 119.78125 234.402344 120.03125 235.742188 120.292969 C 237.082031 120.554688 238.402344 120.828125 239.707031 121.113281 C 241.007812 121.398438 242.292969 121.691406 243.554688 122 C 244.816406 122.308594 246.058594 122.628906 247.277344 122.957031 C 248.5 123.289062 249.695312 123.628906 250.871094 123.980469 C 252.042969 124.332031 253.195312 124.695312 254.320312 125.066406 C 255.445312 125.4375 256.542969 125.820312 257.617188 126.214844 C 258.691406 126.605469 259.738281 127.007812 260.757812 127.417969 C 261.777344 127.828125 262.769531 128.246094 263.734375 128.675781 C 264.699219 129.105469 265.632812 129.539062 266.535156 129.984375 C 267.441406 130.429688 268.316406 130.882812 269.160156 131.34375 C 270.003906 131.804688 270.816406 132.273438 271.597656 132.75 C 272.378906 133.226562 273.125 133.707031 273.839844 134.195312 C 274.558594 134.683594 275.242188 135.179688 275.890625 135.679688 C 276.539062 136.179688 277.15625 136.6875 277.734375 137.199219 C 278.316406 137.710938 278.863281 138.230469 279.375 138.75 C 279.886719 139.273438 280.363281 139.800781 280.804688 140.328125 C 281.246094 140.859375 281.648438 141.394531 282.019531 141.929688 C 282.386719 142.46875 282.71875 143.007812 283.015625 143.554688 C 283.3125 144.097656 283.574219 144.644531 283.796875 145.191406 C 284.019531 145.738281 284.203125 146.289062 284.351562 146.839844 C 284.5 147.390625 284.613281 147.945312 284.6875 148.5 C 284.761719 149.050781 284.800781 149.605469 284.800781 150.160156 Z M 284.800781 150.160156 " fill-opacity="1" fill-rule="nonzero"/><g clip-path="url(#1afe7be53f)"><path fill="#ba46f3" d="M 229.5 75.613281 C 230.558594 75.203125 231.742188 75.304688 232.714844 75.890625 C 233.683594 76.472656 234.332031 77.46875 234.46875 78.59375 C 236.613281 96.378906 244.132812 158.679688 244.132812 158.679688 L 139.316406 158.679688 C 139.316406 158.679688 147.246094 96.296875 149.5 78.558594 C 149.640625 77.441406 150.289062 76.449219 151.261719 75.871094 C 152.230469 75.292969 153.410156 75.195312 154.464844 75.601562 C 163.773438 79.210938 185.140625 87.496094 190.667969 89.640625 C 191.523438 89.96875 192.46875 89.96875 193.320312 89.640625 C 198.84375 87.5 220.179688 79.226562 229.5 75.613281 Z M 229.5 75.613281 " fill-opacity="1" fill-rule="evenodd"/></g><g clip-path="url(#4c7b985ed1)"><path fill="#ba46f3" d="M 184.785156 309.40625 C 148.832031 290.097656 107.339844 276.722656 56.988281 272.824219 C 56.292969 272.773438 55.710938 272.285156 55.539062 271.613281 C 55.367188 270.941406 55.640625 270.234375 56.222656 269.851562 C 65.039062 264.097656 86.582031 250.035156 103.34375 239.097656 C 108.644531 235.640625 112.027344 229.90625 112.492188 223.597656 C 112.957031 217.285156 110.453125 211.121094 105.722656 206.921875 C 90.75 193.632812 72.789062 177.695312 72.789062 177.695312 C 97.136719 178.253906 121.578125 184.378906 146.136719 198.128906 C 159.640625 205.699219 169.785156 218.09375 174.535156 232.832031 C 179.617188 248.59375 186.332031 269.4375 189.765625 280.097656 C 190.074219 281.0625 190.980469 281.722656 191.996094 281.722656 C 193.015625 281.722656 193.917969 281.0625 194.226562 280.097656 C 197.878906 268.765625 205.242188 245.917969 210.398438 229.90625 C 214.496094 217.191406 222.894531 206.300781 234.152344 199.113281 C 258.527344 183.558594 284.226562 176.089844 311.203125 176.40625 C 311.203125 176.40625 292.769531 193.214844 277.679688 206.972656 C 273.058594 211.1875 270.648438 217.300781 271.152344 223.539062 C 271.65625 229.769531 275.015625 235.417969 280.25 238.835938 C 297.066406 249.816406 318.882812 264.050781 327.769531 269.851562 C 328.351562 270.230469 328.625 270.941406 328.453125 271.613281 C 328.28125 272.285156 327.699219 272.773438 327.003906 272.824219 C 276.652344 276.722656 235.160156 290.097656 199.207031 309.40625 C 197.050781 310.566406 194.914062 311.746094 192.796875 312.949219 C 192.300781 313.230469 191.691406 313.230469 191.195312 312.949219 C 189.078125 311.746094 186.941406 310.566406 184.785156 309.40625 Z M 184.785156 309.40625 " fill-opacity="1" fill-rule="evenodd"/></g></svg>